<svg width="442" height="433" viewBox="0 0 442 433" fill="none" xmlns="http://www.w3.org/2000/svg">
<path d="M220.766 380.995C315.327 380.995 391.984 376.519 391.984 370.998C391.984 365.477 315.327 361.002 220.766 361.002C126.206 361.002 49.5488 365.477 49.5488 370.998C49.5488 376.519 126.206 380.995 220.766 380.995Z" fill="#F5F5F5"/>
<path d="M308.41 147.751L299.65 144.219C299.65 144.219 288.091 165.298 284.779 166.366C280.276 167.814 270.951 171.841 265.423 172.547C264.672 173.431 263.444 176.177 263.559 177.175C270.986 179.656 287.305 176.362 290.802 173.766C298.758 167.876 308.41 147.751 308.41 147.751Z" fill="#E58A7B"/>
<path d="M311.104 142.956C312.738 148.987 303.89 161.12 303.89 161.12L292.295 154.621C292.295 154.621 294.467 149.632 297.116 144.554C301.364 136.35 309.241 136.077 311.104 142.956Z" fill="#0000BF"/>
<path opacity="0.2" d="M311.104 142.956C312.738 148.987 303.89 161.12 303.89 161.12L292.295 154.621C292.295 154.621 294.467 149.632 297.116 144.554C301.364 136.35 309.241 136.077 311.104 142.956Z" fill="black"/>
<path opacity="0.2" d="M296.896 157.218L301.461 159.779L302.265 145.765C299.607 147.805 297.734 153.951 296.896 157.218Z" fill="black"/>
<path d="M303.474 138.417C303.474 138.417 294.45 158.498 299.713 195.887H335.274C335.839 190.429 333.967 163.796 340.74 138.081C336.839 137.319 332.892 136.814 328.924 136.571C323.892 136.28 318.847 136.28 313.815 136.571C310.327 136.925 306.87 137.542 303.474 138.417Z" fill="#0000BF"/>
<path opacity="0.2" d="M303.474 138.417C303.474 138.417 294.45 158.498 299.713 195.887H335.274C335.839 190.429 333.967 163.796 340.74 138.081C336.839 137.319 332.892 136.814 328.924 136.571C323.892 136.28 318.847 136.28 313.815 136.571C310.327 136.925 306.87 137.542 303.474 138.417Z" fill="black"/>
<g style="mix-blend-mode:multiply">
<path d="M295.227 371.794C295.174 372.748 308.658 373.516 325.339 373.516C342.02 373.516 355.602 372.748 355.655 371.794C355.708 370.84 342.232 370.081 325.542 370.081C308.852 370.081 295.289 370.849 295.227 371.794Z" fill="#E8ECF1"/>
</g>
<path d="M318.963 346.735L312.656 349.177L318.089 363.212L324.396 360.77L318.963 346.735Z" fill="#E58A7B"/>
<path d="M347.089 365.003H340.439L338.002 349.611H344.651L347.089 365.003Z" fill="#E58A7B"/>
<path d="M339.98 364.234H347.451C347.58 364.235 347.706 364.281 347.804 364.365C347.903 364.449 347.968 364.566 347.989 364.694L348.952 370.601C348.972 370.75 348.96 370.9 348.917 371.044C348.874 371.187 348.8 371.319 348.702 371.431C348.603 371.544 348.481 371.633 348.344 371.694C348.208 371.755 348.059 371.786 347.91 371.785C345.305 371.74 344.051 371.581 340.766 371.581C338.744 371.581 334.584 371.793 331.776 371.793C328.968 371.793 328.783 369.038 329.939 368.782C335.132 367.661 337.145 366.133 338.876 364.649C339.181 364.381 339.574 364.234 339.98 364.234Z" fill="#263238"/>
<path d="M317.904 361.956L324.968 359.89C325.094 359.854 325.229 359.863 325.349 359.914C325.47 359.966 325.569 360.057 325.631 360.172L328.28 365.471C328.341 365.605 328.373 365.751 328.372 365.899C328.371 366.047 328.338 366.193 328.275 366.327C328.212 366.46 328.12 366.579 328.007 366.673C327.893 366.768 327.76 366.837 327.618 366.875C325.048 367.581 323.326 368.014 320.112 368.95C317.895 369.595 315.634 370.645 313.444 371.343C311.926 371.829 308.358 371.846 306.512 371.846C303.784 371.846 303.174 368.968 304.349 368.835C307.307 368.508 307.704 368.659 309.338 367.837C312.011 366.669 314.434 364.996 316.473 362.91C316.858 362.471 317.351 362.142 317.904 361.956Z" fill="#263238"/>
<path d="M266.536 172.512L259.224 169.448L256.213 177.555C259.21 178.011 262.259 178.011 265.255 177.555L266.536 172.512Z" fill="#E58A7B"/>
<path d="M253.784 169.236L253.59 174.623L256.213 177.537L259.224 169.431L253.784 169.236Z" fill="#E58A7B"/>
<path d="M319.829 347.927L313.502 350.369L316.304 357.627L322.631 355.184L319.829 347.927Z" fill="#CF6F64"/>
<path d="M344.651 349.611H338.002L339.265 357.55H345.914L344.651 349.611Z" fill="#CF6F64"/>
<path opacity="0.2" d="M298.582 185.776C298.714 187.374 298.865 189.008 299.059 190.686L325.498 182.102C329.627 180.879 333.215 178.284 335.671 174.746C335.777 172.389 335.909 169.907 336.112 167.32C336.201 166.066 336.307 164.777 336.421 163.47C336.536 162.163 336.695 160.715 336.863 159.319L298.582 185.776Z" fill="black"/>
<path d="M307.218 156.811L306.335 156.705C306.856 152.29 310.15 148.811 313.62 148.899V149.782C310.583 149.72 307.686 152.855 307.218 156.811Z" fill="white"/>
<path d="M311.926 164.962H311.775V164.079C314.813 164.194 317.665 161.023 318.133 157.076L319.017 157.182C318.549 161.5 315.361 164.962 311.926 164.962Z" fill="white"/>
<path d="M328.429 119.555C327.184 124.42 325.718 133.331 328.924 136.571C328.924 136.571 326.681 141.508 317.647 141.508C309.391 141.508 313.815 136.571 313.815 136.571C319.307 135.282 319.405 131.273 318.68 127.476L328.429 119.555Z" fill="#E58A7B"/>
<path d="M324.456 122.787L318.689 127.476C318.868 128.349 318.972 129.235 318.999 130.125C320.685 131.803 324.067 127.556 324.412 125.383C324.587 124.528 324.602 123.648 324.456 122.787Z" fill="#CF6F64"/>
<path d="M308.773 119.493C309.174 120.189 309.715 120.794 310.36 121.271C311.006 121.748 311.743 122.087 312.526 122.266C314.645 122.734 315.705 120.783 315.122 118.822C314.601 117.056 312.862 114.681 310.707 115.087C310.245 115.182 309.813 115.386 309.447 115.683C309.081 115.979 308.791 116.359 308.601 116.79C308.412 117.222 308.329 117.693 308.358 118.163C308.388 118.633 308.531 119.089 308.773 119.493Z" fill="#CF6F64"/>
<path d="M312.278 103.925C308.975 105.435 307.81 118.557 311.96 120.5C316.111 122.443 318.53 101.055 312.278 103.925Z" fill="#263238"/>
<path d="M329.436 112.234C328.641 118.822 328.553 122.699 325.021 126.072C323.926 127.191 322.543 127.987 321.025 128.37C319.507 128.753 317.913 128.709 316.418 128.243C314.924 127.777 313.587 126.907 312.555 125.729C311.524 124.551 310.838 123.111 310.574 121.568C309.505 115.652 310.98 105.876 317.585 103.254C318.973 102.641 320.499 102.412 322.006 102.588C323.512 102.764 324.944 103.34 326.153 104.257C327.362 105.173 328.304 106.396 328.881 107.798C329.459 109.201 329.65 110.733 329.436 112.234Z" fill="#E58A7B"/>
<path d="M318.583 107.333C323.476 106.088 327.07 105.241 325.78 109.311C324.076 114.751 322.027 120.014 324.774 120.253C326.452 120.403 333.869 117.259 332.924 114.071C332.103 111.298 335.574 110.539 336.192 109.135C338.479 104.048 331.935 104.719 333.101 101.629C334.267 98.538 327.803 93.5575 324.27 96.039C318.522 100.048 308.658 99.9863 313.841 93.3898C317.559 88.683 310.927 89.6456 310.927 89.6456C310.927 89.6456 314.936 92.021 308.19 95.6946C301.055 99.6154 307.598 110.15 318.583 107.333Z" fill="#263238"/>
<path d="M332.033 119.493C331.067 120.891 329.616 121.879 327.962 122.266C325.78 122.734 324.942 120.783 325.763 118.822C326.496 117.056 328.509 114.681 330.593 115.087C332.677 115.493 333.154 117.763 332.033 119.493Z" fill="#E58A7B"/>
<path d="M299.712 195.887C299.712 195.887 293.743 249.312 293.275 269.587C292.798 290.675 313.506 356.472 313.506 356.472L324.103 352.057C324.103 352.057 311.74 291.938 313.506 271.23C315.378 248.65 323.114 195.922 323.114 195.922L299.712 195.887Z" fill="#0000BF"/>
<path opacity="0.2" d="M314.548 210.555C309.788 220.428 312.994 239.953 315.572 251.521C316.553 243.352 317.718 234.486 318.822 226.283C318.716 213.672 317.736 203.932 314.548 210.555Z" fill="black"/>
<path d="M323.635 348.561C323.688 348.561 324.889 351.934 324.889 351.934L312.667 357.073L310.742 353.488L323.635 348.561Z" fill="#0000BF"/>
<path d="M312.331 195.887C312.331 195.887 316.897 246.698 319.917 265.728C323.237 286.578 336.253 356.013 336.253 356.013H348.431C348.431 356.013 341.137 288.264 339.759 267.618C338.258 245.224 335.273 195.887 335.273 195.887H312.331Z" fill="#0000BF"/>
<path d="M348.616 352.843C348.669 352.843 349.023 356.243 349.023 356.243H335.635L334.682 352.34L348.616 352.843Z" fill="#0000BF"/>
<path opacity="0.2" d="M343.954 348.816C343.926 348.817 343.899 348.807 343.878 348.789C343.857 348.771 343.843 348.747 343.839 348.719C343.768 348.101 337.189 286.905 335.953 268.36C334.611 248.244 331.909 203.623 331.882 203.172C331.881 203.158 331.883 203.143 331.888 203.129C331.892 203.115 331.9 203.103 331.91 203.092C331.92 203.081 331.932 203.072 331.945 203.066C331.959 203.061 331.974 203.058 331.988 203.058C332.017 203.058 332.045 203.068 332.066 203.088C332.088 203.108 332.101 203.135 332.103 203.164C332.103 203.614 334.832 248.2 336.174 268.351C337.41 286.896 343.989 348.048 344.051 348.71C344.053 348.725 344.053 348.74 344.049 348.754C344.046 348.769 344.039 348.782 344.03 348.794C344.021 348.806 344.009 348.815 343.996 348.822C343.983 348.829 343.969 348.833 343.954 348.834V348.816Z" fill="black"/>
<path d="M319.334 114.071C319.334 114.61 318.999 115.042 318.646 115.042C318.292 115.042 318.036 114.61 318.072 114.071C318.107 113.532 318.407 113.1 318.76 113.1C319.114 113.1 319.37 113.541 319.334 114.071Z" fill="#263238"/>
<path d="M313.276 114.071C313.276 114.61 312.932 115.042 312.588 115.042C312.243 115.042 311.978 114.61 312.005 114.071C312.031 113.532 312.349 113.1 312.702 113.1C313.056 113.1 313.312 113.541 313.276 114.071Z" fill="#263238"/>
<path d="M315.183 114.345C314.446 115.99 313.496 117.531 312.357 118.928C313.24 119.811 314.892 119.405 314.892 119.405L315.183 114.345Z" fill="#DF5753"/>
<path d="M315.343 121.656C315.322 121.656 315.302 121.652 315.283 121.644C315.264 121.636 315.247 121.624 315.233 121.609C315.219 121.594 315.208 121.577 315.201 121.557C315.194 121.538 315.191 121.518 315.193 121.497C315.195 121.454 315.214 121.414 315.245 121.384C315.276 121.355 315.317 121.338 315.36 121.338C316.036 121.343 316.704 121.196 317.315 120.909C317.926 120.622 318.465 120.201 318.893 119.678C318.923 119.651 318.962 119.637 319.003 119.637C319.044 119.637 319.083 119.651 319.113 119.678C319.142 119.708 319.158 119.747 319.158 119.789C319.158 119.83 319.142 119.869 319.113 119.899C318.656 120.455 318.08 120.901 317.427 121.205C316.775 121.509 316.063 121.663 315.343 121.656Z" fill="#263238"/>
<path d="M320.411 112.447C320.369 112.468 320.322 112.48 320.274 112.48C320.227 112.48 320.18 112.468 320.137 112.447C319.807 112.233 319.431 112.1 319.04 112.059C318.649 112.018 318.253 112.069 317.886 112.208C317.85 112.226 317.811 112.237 317.771 112.239C317.731 112.242 317.69 112.237 317.653 112.223C317.615 112.21 317.58 112.19 317.55 112.163C317.52 112.136 317.496 112.103 317.479 112.067C317.446 111.988 317.446 111.9 317.477 111.821C317.508 111.742 317.569 111.678 317.647 111.643C318.109 111.455 318.609 111.38 319.106 111.426C319.602 111.472 320.08 111.638 320.499 111.908C320.533 111.931 320.562 111.961 320.585 111.995C320.607 112.029 320.622 112.068 320.63 112.108C320.637 112.148 320.636 112.189 320.628 112.229C320.619 112.269 320.602 112.307 320.579 112.341C320.534 112.391 320.476 112.428 320.411 112.447Z" fill="#263238"/>
<path d="M310.936 110.68C310.889 110.669 310.846 110.645 310.812 110.61C310.783 110.581 310.76 110.547 310.744 110.509C310.728 110.471 310.72 110.43 310.72 110.389C310.72 110.348 310.728 110.307 310.744 110.269C310.76 110.231 310.783 110.197 310.812 110.168C311.151 109.789 311.572 109.492 312.044 109.302C312.516 109.113 313.025 109.034 313.532 109.073C313.573 109.08 313.612 109.094 313.647 109.116C313.681 109.138 313.711 109.167 313.734 109.201C313.758 109.235 313.774 109.273 313.781 109.313C313.789 109.354 313.789 109.395 313.78 109.435C313.761 109.517 313.713 109.589 313.644 109.638C313.576 109.687 313.492 109.709 313.409 109.7C313.007 109.675 312.606 109.741 312.234 109.894C311.862 110.047 311.53 110.283 311.263 110.583C311.223 110.628 311.171 110.661 311.113 110.678C311.056 110.695 310.994 110.696 310.936 110.68Z" fill="#263238"/>
<path d="M344.157 146.771L334.973 144.325C334.973 144.325 325.966 166.499 322.778 167.938C318.451 169.916 307.492 176.769 302.83 180.01C302.574 181.114 302.777 184.037 303.359 184.84C311.307 183.392 326.522 177.537 329.701 174.561C336.951 167.771 344.157 146.771 344.157 146.771Z" fill="#E58A7B"/>
<path d="M337.746 365.4C337.298 365.436 336.852 365.314 336.484 365.056C336.37 364.953 336.285 364.823 336.237 364.677C336.189 364.532 336.18 364.376 336.21 364.226C336.215 364.132 336.246 364.041 336.299 363.964C336.352 363.886 336.425 363.824 336.51 363.784C337.252 363.405 339.327 364.72 339.565 364.87C339.592 364.887 339.612 364.911 339.623 364.94C339.634 364.968 339.636 365 339.627 365.029C339.62 365.06 339.604 365.089 339.583 365.112C339.561 365.135 339.534 365.152 339.504 365.162C338.928 365.303 338.339 365.383 337.746 365.4ZM336.863 364.023C336.796 364.008 336.727 364.008 336.66 364.023C336.626 364.04 336.598 364.067 336.579 364.1C336.561 364.133 336.552 364.17 336.554 364.208C336.531 364.311 336.535 364.418 336.566 364.519C336.597 364.62 336.654 364.71 336.731 364.782C337.075 365.091 337.941 365.127 339.08 364.906C338.401 364.459 337.638 364.158 336.837 364.023H336.863Z" fill="#0000BF"/>
<path d="M339.459 365.162C339.436 365.169 339.411 365.169 339.388 365.162C338.726 364.791 337.481 363.334 337.666 362.592C337.694 362.475 337.76 362.37 337.855 362.295C337.949 362.219 338.066 362.178 338.187 362.177C338.306 362.161 338.426 362.171 338.54 362.206C338.655 362.241 338.76 362.301 338.849 362.38C339.582 363.007 339.626 364.932 339.626 365.03C339.631 365.059 339.625 365.088 339.611 365.114C339.596 365.139 339.574 365.159 339.547 365.171C339.517 365.177 339.487 365.174 339.459 365.162ZM338.275 362.469H338.214C338.01 362.469 337.984 362.583 337.975 362.628C337.869 363.06 338.655 364.164 339.309 364.685C339.306 363.939 339.074 363.212 338.646 362.601C338.544 362.512 338.411 362.464 338.275 362.469Z" fill="#0000BF"/>
<path d="M314.3 364.296C313.76 364.485 313.172 364.485 312.631 364.296C312.508 364.23 312.405 364.133 312.329 364.016C312.253 363.899 312.208 363.764 312.199 363.625C312.187 363.538 312.199 363.449 312.231 363.367C312.263 363.285 312.316 363.213 312.384 363.157C313.09 362.521 315.978 363.157 316.305 363.281C316.336 363.289 316.363 363.307 316.383 363.333C316.402 363.358 316.412 363.39 316.411 363.422C316.412 363.455 316.404 363.488 316.386 363.516C316.369 363.545 316.344 363.567 316.314 363.581C315.663 363.875 314.99 364.114 314.3 364.296ZM312.861 363.245C312.76 363.266 312.666 363.311 312.587 363.378C312.559 363.399 312.537 363.428 312.525 363.46C312.512 363.493 312.509 363.529 312.516 363.563C312.522 363.656 312.551 363.746 312.6 363.824C312.65 363.903 312.718 363.968 312.799 364.014C313.267 364.261 314.353 364.067 315.757 363.475C314.812 363.236 313.832 363.159 312.861 363.245Z" fill="#0000BF"/>
<path d="M316.287 363.581H316.217C315.334 363.422 313.568 362.407 313.515 361.647C313.515 361.471 313.594 361.223 314.018 361.082C314.161 361.031 314.313 361.01 314.465 361.019C314.617 361.028 314.765 361.067 314.901 361.135C315.855 361.603 316.358 363.299 316.385 363.378C316.391 363.405 316.39 363.433 316.382 363.459C316.375 363.485 316.36 363.509 316.34 363.528C316.327 363.55 316.309 363.568 316.287 363.581ZM314.195 361.347H314.106C313.833 361.444 313.833 361.559 313.833 361.594C313.833 362.053 315.113 362.892 316.005 363.175C315.799 362.466 315.365 361.845 314.769 361.409C314.591 361.319 314.387 361.297 314.195 361.347Z" fill="#0000BF"/>
<path d="M303.581 179.488L294.37 183.727L293.302 186.376L296.702 188.663C296.702 188.663 303.06 187.975 304.87 183.886L303.581 179.488Z" fill="#E58A7B"/>
<path d="M303.969 184.991C303.763 183.221 303.179 181.516 302.256 179.992L303.713 178.897C304.809 180.653 305.508 182.627 305.762 184.682L303.969 184.991Z" fill="#263238"/>
<path d="M305.541 180.743C305.735 181.049 305.831 181.408 305.815 181.77C305.798 182.133 305.67 182.482 305.449 182.769C305.227 183.056 304.922 183.269 304.576 183.377C304.23 183.485 303.858 183.483 303.513 183.373C303.167 183.262 302.864 183.048 302.644 182.759C302.425 182.47 302.299 182.12 302.285 181.758C302.272 181.395 302.37 181.037 302.567 180.732C302.764 180.427 303.05 180.191 303.386 180.054C303.763 179.862 304.202 179.826 304.605 179.955C305.009 180.084 305.345 180.367 305.541 180.743Z" fill="#263238"/>
<path d="M288.145 187.154L289.372 188.39L297.637 184.858L294.37 183.728L288.145 187.154Z" fill="#E58A7B"/>
<path opacity="0.2" d="M323.635 348.561C323.688 348.561 324.889 351.934 324.889 351.934L312.667 357.073L310.742 353.488L323.635 348.561Z" fill="black"/>
<path opacity="0.2" d="M348.616 352.843C348.669 352.843 349.023 356.243 349.023 356.243H335.635L334.682 352.34L348.616 352.843Z" fill="black"/>
<path d="M346.55 144.227C348.979 152.06 339.486 162.772 339.486 162.772L326.372 157.42C327.926 152.893 329.719 148.451 331.741 144.113C335.768 135.432 344.095 136.324 346.55 144.227Z" fill="#0000BF"/>
<path opacity="0.2" d="M346.55 144.227C348.979 152.06 339.486 162.772 339.486 162.772L326.372 157.42C327.926 152.893 329.719 148.451 331.741 144.113C335.768 135.432 344.095 136.324 346.55 144.227Z" fill="black"/>
<path d="M216.244 65.749H210.602V66.6586H216.244V65.749Z" fill="#0000BF"/>
<path d="M289.29 101.749L288.607 116.904L289.516 116.945L290.199 101.79L289.29 101.749Z" fill="#0000BF"/>
<path d="M287.535 69.8291H183.333L173.637 286.816H277.838L287.535 69.8291Z" fill="#0000BF"/>
<path opacity="0.56" d="M284.426 72.8135H180.224L170.528 289.8H274.73L284.426 72.8135Z" fill="#FAFAFA"/>
<path opacity="0.07" d="M281.318 75.7891H177.116L167.411 292.776H271.613L281.318 75.7891Z" fill="#0000BF"/>
<path d="M269.459 170.428H180.516L179.774 187.029H268.717L269.459 170.428Z" fill="white"/>
<path d="M229.429 158.312H181.054L180.728 165.738H229.102L229.429 158.312Z" fill="#0000BF"/>
<path d="M267.454 215.234H178.511L177.77 231.836H266.712L267.454 215.234Z" fill="white"/>
<path opacity="0.47" d="M251.143 254.257H191.333L190.441 274.152H250.251L251.143 254.257Z" fill="#0000BF"/>
<path d="M247.143 277.244H187.333C187.307 277.25 187.28 277.25 187.254 277.244C187.245 277.218 187.245 277.19 187.254 277.164L188.137 257.26C188.137 257.246 188.139 257.233 188.145 257.22C188.15 257.208 188.158 257.197 188.168 257.188C188.178 257.179 188.19 257.172 188.203 257.167C188.216 257.163 188.229 257.161 188.243 257.163H248.053C248.064 257.157 248.076 257.154 248.088 257.154C248.1 257.154 248.112 257.157 248.123 257.163C248.13 257.173 248.133 257.185 248.133 257.198C248.133 257.21 248.13 257.222 248.123 257.233L247.258 277.182C247.247 277.202 247.231 277.219 247.21 277.23C247.19 277.241 247.166 277.246 247.143 277.244ZM187.439 277.032H247.037L247.92 257.339H188.322L187.439 277.032Z" fill="white"/>
<path d="M218.983 203.119H179.05L178.724 210.555H218.647L218.983 203.119Z" fill="#0000BF"/>
<path d="M250.004 116.799C249.776 121.63 248.058 126.273 245.085 130.089C242.885 132.971 240.054 135.312 236.809 136.93C233.563 138.548 229.991 139.401 226.364 139.423C223.434 139.445 220.53 138.868 217.832 137.725C215.133 136.583 212.697 134.9 210.674 132.78C208.65 130.661 207.082 128.15 206.066 125.401C205.049 122.653 204.607 119.725 204.765 116.799C205.075 110.727 207.694 105.003 212.085 100.798C216.475 96.5922 222.307 94.2231 228.387 94.1748C231.319 94.1474 234.226 94.7217 236.928 95.8621C239.63 97.0026 242.069 98.6849 244.095 100.805C246.121 102.926 247.691 105.439 248.707 108.19C249.723 110.941 250.165 113.871 250.004 116.799Z" fill="white"/>
<path d="M252.132 98.9084C252.075 100.193 251.618 101.428 250.825 102.441C250.239 103.206 249.485 103.828 248.622 104.258C247.759 104.688 246.809 104.915 245.845 104.922C244.911 104.928 243.989 104.705 243.161 104.272C242.333 103.839 241.623 103.211 241.094 102.441C240.393 101.4 240.047 100.162 240.105 98.9084C240.19 97.2963 240.887 95.7774 242.054 94.6616C243.221 93.5458 244.769 92.917 246.384 92.9036C247.162 92.8964 247.934 93.0489 248.652 93.3515C249.37 93.6541 250.018 94.1004 250.556 94.663C251.095 95.2256 251.513 95.8925 251.784 96.6226C252.055 97.3528 252.173 98.1307 252.132 98.9084Z" fill="#0000BF"/>
<path d="M190.097 178.728C190.055 179.44 189.744 180.109 189.228 180.601C188.711 181.092 188.028 181.37 187.315 181.378C186.971 181.382 186.63 181.315 186.312 181.182C185.995 181.049 185.708 180.852 185.47 180.604C185.231 180.356 185.046 180.061 184.926 179.738C184.806 179.416 184.754 179.072 184.772 178.728C184.81 178.015 185.12 177.344 185.637 176.851C186.154 176.359 186.84 176.083 187.554 176.079C187.898 176.076 188.238 176.144 188.555 176.277C188.872 176.411 189.158 176.608 189.396 176.856C189.634 177.104 189.819 177.398 189.94 177.72C190.06 178.042 190.114 178.385 190.097 178.728Z" fill="#263238"/>
<path d="M202.001 178.728C201.961 179.441 201.651 180.111 201.134 180.603C200.618 181.095 199.933 181.372 199.22 181.378C198.876 181.381 198.536 181.313 198.219 181.18C197.903 181.046 197.617 180.849 197.38 180.601C197.142 180.353 196.958 180.058 196.839 179.736C196.719 179.414 196.667 179.071 196.685 178.728C196.723 178.017 197.031 177.347 197.547 176.854C198.062 176.362 198.745 176.085 199.458 176.079C199.802 176.075 200.143 176.142 200.461 176.275C200.778 176.408 201.065 176.605 201.303 176.853C201.542 177.101 201.727 177.396 201.847 177.718C201.967 178.041 202.019 178.385 202.001 178.728Z" fill="#263238"/>
<path d="M213.914 178.728C213.873 179.441 213.563 180.111 213.047 180.603C212.53 181.095 211.846 181.372 211.132 181.378C210.788 181.38 210.448 181.313 210.131 181.18C209.814 181.046 209.528 180.849 209.29 180.601C209.051 180.353 208.867 180.059 208.746 179.737C208.626 179.415 208.572 179.072 208.589 178.728C208.629 178.016 208.939 177.346 209.456 176.854C209.973 176.362 210.657 176.085 211.371 176.079C211.715 176.075 212.056 176.142 212.374 176.275C212.691 176.408 212.978 176.605 213.216 176.853C213.455 177.101 213.639 177.396 213.759 177.718C213.879 178.041 213.932 178.385 213.914 178.728Z" fill="#263238"/>
<path d="M188.093 223.535C188.05 224.247 187.74 224.916 187.223 225.407C186.707 225.899 186.024 226.177 185.311 226.184C184.967 226.187 184.626 226.12 184.309 225.986C183.993 225.853 183.706 225.656 183.468 225.408C183.23 225.16 183.045 224.866 182.925 224.544C182.804 224.222 182.751 223.878 182.768 223.535C182.808 222.823 183.118 222.152 183.635 221.66C184.151 221.168 184.836 220.891 185.549 220.886C185.893 220.883 186.234 220.95 186.551 221.084C186.868 221.217 187.154 221.414 187.392 221.662C187.63 221.91 187.815 222.204 187.935 222.526C188.056 222.848 188.109 223.192 188.093 223.535Z" fill="#263238"/>
<path d="M199.996 223.535C199.956 224.246 199.647 224.915 199.133 225.407C198.618 225.898 197.935 226.176 197.223 226.184C196.879 226.188 196.538 226.122 196.221 225.989C195.903 225.856 195.616 225.659 195.378 225.411C195.14 225.162 194.955 224.868 194.835 224.545C194.715 224.223 194.662 223.879 194.68 223.535C194.721 222.823 195.031 222.152 195.547 221.66C196.064 221.168 196.748 220.891 197.462 220.886C197.805 220.883 198.146 220.95 198.462 221.084C198.779 221.218 199.064 221.415 199.302 221.663C199.539 221.911 199.723 222.205 199.843 222.527C199.962 222.849 200.014 223.192 199.996 223.535Z" fill="#263238"/>
<path d="M211.935 223.535C211.895 224.247 211.585 224.918 211.068 225.41C210.551 225.902 209.867 226.179 209.153 226.184C208.81 226.186 208.47 226.118 208.153 225.984C207.837 225.85 207.551 225.653 207.314 225.405C207.076 225.157 206.891 224.864 206.77 224.542C206.649 224.221 206.594 223.878 206.61 223.535C206.652 222.824 206.963 222.154 207.479 221.663C207.995 221.171 208.679 220.894 209.392 220.886C209.736 220.882 210.077 220.948 210.395 221.081C210.712 221.214 210.999 221.411 211.237 221.66C211.476 221.908 211.66 222.202 211.78 222.525C211.9 222.848 211.953 223.191 211.935 223.535Z" fill="#263238"/>
<path d="M223.822 223.535C223.779 224.247 223.469 224.916 222.952 225.407C222.436 225.899 221.753 226.177 221.04 226.184C220.697 226.186 220.356 226.117 220.04 225.984C219.724 225.85 219.438 225.653 219.2 225.405C218.962 225.157 218.777 224.864 218.656 224.542C218.536 224.221 218.481 223.878 218.497 223.535C218.539 222.823 218.85 222.154 219.366 221.663C219.882 221.171 220.566 220.894 221.278 220.886C221.622 220.883 221.963 220.95 222.28 221.084C222.597 221.217 222.883 221.414 223.121 221.662C223.359 221.91 223.544 222.204 223.665 222.526C223.785 222.848 223.838 223.192 223.822 223.535Z" fill="#263238"/>
<path d="M235.778 223.535C235.735 224.247 235.425 224.916 234.908 225.407C234.392 225.899 233.709 226.177 232.996 226.184C232.652 226.188 232.31 226.122 231.993 225.989C231.676 225.856 231.389 225.659 231.15 225.411C230.912 225.162 230.727 224.868 230.607 224.545C230.487 224.223 230.435 223.879 230.453 223.535C230.493 222.823 230.803 222.152 231.32 221.66C231.836 221.168 232.521 220.891 233.234 220.886C233.578 220.883 233.919 220.95 234.236 221.084C234.553 221.217 234.839 221.414 235.077 221.662C235.315 221.91 235.5 222.204 235.621 222.526C235.741 222.848 235.794 223.192 235.778 223.535Z" fill="#263238"/>
<path d="M233.971 115.621C237.667 112.006 237.863 106.213 234.409 102.681C230.954 99.1484 225.158 99.2151 221.462 102.83C217.766 106.444 217.57 112.237 221.024 115.77C224.478 119.302 230.274 119.235 233.971 115.621Z" fill="#0000BF"/>
<path d="M245.085 130.089C242.885 132.971 240.054 135.311 236.809 136.929C233.563 138.547 229.991 139.4 226.364 139.423C222.848 139.453 219.379 138.617 216.262 136.989C213.145 135.361 210.476 132.992 208.491 130.089C212.783 125.815 219.574 123.024 227.097 123.024C234.621 123.024 241.173 125.815 245.085 130.089Z" fill="#0000BF"/>
<path opacity="0.1" d="M233.971 115.621C237.667 112.006 237.863 106.213 234.409 102.681C230.954 99.1484 225.158 99.2151 221.462 102.83C217.766 106.444 217.57 112.237 221.024 115.77C224.478 119.302 230.274 119.235 233.971 115.621Z" fill="white"/>
<path opacity="0.1" d="M245.085 130.089C242.885 132.971 240.054 135.311 236.809 136.929C233.563 138.547 229.991 139.4 226.364 139.423C222.848 139.453 219.379 138.617 216.262 136.989C213.145 135.361 210.476 132.992 208.491 130.089C212.783 125.815 219.574 123.024 227.097 123.024C234.621 123.024 241.173 125.815 245.085 130.089Z" fill="white"/>
<path d="M115.16 191.03C114.322 192.866 113.439 194.889 112.67 196.849C111.902 198.809 111.116 200.832 110.436 202.845C109.048 206.813 107.99 210.889 107.275 215.031L107.08 216.329C107.062 216.552 107.083 216.776 107.142 216.992C107.351 217.724 107.679 218.416 108.114 219.04C109.248 220.657 110.563 222.139 112.034 223.456C113.586 224.899 115.213 226.257 116.909 227.527C118.604 228.834 120.388 230.105 122.146 231.306L120.494 234.406C116.298 232.577 112.315 230.294 108.617 227.597C106.644 226.158 104.863 224.473 103.319 222.582C102.403 221.456 101.689 220.18 101.208 218.811C100.928 217.955 100.785 217.061 100.784 216.162C100.784 215.95 100.784 215.641 100.784 215.49V215.058L100.872 214.175C101.379 209.574 102.346 205.036 103.76 200.628C104.449 198.456 105.182 196.293 106.021 194.182C106.86 192.072 107.725 190.005 108.794 187.859L115.16 191.03Z" fill="#E58A7B"/>
<path d="M120.9 230.759L127.144 227.598L125.528 234.45C125.528 234.45 121.245 235.651 119.258 233.567L120.9 230.759Z" fill="#E58A7B"/>
<path d="M132.857 228.719L131.197 234.388L125.527 234.45L127.143 227.598L132.857 228.719Z" fill="#E58A7B"/>
<path d="M141.67 157.968C142.004 159.192 142.469 160.376 143.056 161.5C142.885 161.695 142.664 161.839 142.416 161.919C142.169 161.998 141.905 162.009 141.652 161.95L141.67 157.968Z" fill="#DF5753"/>
<path d="M141.485 158.021C141.85 158.021 142.147 157.567 142.147 157.006C142.147 156.445 141.85 155.99 141.485 155.99C141.119 155.99 140.822 156.445 140.822 157.006C140.822 157.567 141.119 158.021 141.485 158.021Z" fill="#263238"/>
<path d="M141.29 156.025L142.632 155.646C142.632 155.646 141.979 156.688 141.29 156.025Z" fill="#263238"/>
<path d="M124.424 164.449C125.228 168.555 126.031 176.088 123.152 178.834C123.152 178.834 124.283 183.002 131.921 183.002C140.319 183.002 135.93 178.834 135.93 178.834C131.347 177.739 131.462 174.34 132.266 171.143L124.424 164.449Z" fill="#E58A7B"/>
<path d="M122.189 155.089C122.613 161.95 122.648 164.864 126.11 168.388C131.329 173.686 139.665 171.673 141.299 164.855C142.773 158.674 141.837 148.501 135.117 145.772C133.642 145.165 132.036 144.943 130.452 145.129C128.867 145.315 127.357 145.902 126.062 146.835C124.768 147.768 123.733 149.015 123.055 150.46C122.378 151.904 122.079 153.497 122.189 155.089Z" fill="#E58A7B"/>
<path d="M122.869 147.372C119.425 148.626 114.833 147.689 116.635 158.313C118.542 169.563 115.61 173.263 115.61 173.263C115.61 173.263 128.671 176.045 142.005 173.095C142.005 173.095 137.934 165.978 139.073 160.732C140.53 154.109 139.382 151.663 139.382 151.663C139.382 151.663 127.708 145.605 122.869 147.372Z" fill="#263238"/>
<path d="M137.44 158.666C137.444 159.971 137.818 161.248 138.518 162.348C139.454 163.779 140.558 163.232 140.831 161.713C141.079 160.379 140.893 158.021 139.701 157.103C138.509 156.185 137.458 157.085 137.44 158.666Z" fill="#E58A7B"/>
<path d="M119.876 148.528C118.887 145.746 123.603 141.463 133.581 143.23C143.56 144.996 143.992 153.305 143.992 153.305L141.979 150.903L142.067 153.429L131.815 155.398L119.876 148.528Z" fill="#263238"/>
<path d="M120.723 179.303C120.665 178.9 120.765 178.49 121.005 178.16C121.244 177.83 121.602 177.607 122.004 177.537C125.112 177.025 132.177 175.983 135.727 176.477C138.376 176.848 139.065 178.385 139.18 179.648C139.197 179.869 139.168 180.091 139.093 180.3C139.018 180.509 138.899 180.699 138.744 180.858C138.589 181.017 138.402 181.141 138.196 181.221C137.989 181.302 137.767 181.338 137.546 181.325L122.198 180.637C121.836 180.618 121.492 180.476 121.223 180.233C120.954 179.99 120.778 179.661 120.723 179.303Z" fill="#0000BF"/>
<path opacity="0.6" d="M120.723 179.303C120.665 178.9 120.765 178.49 121.005 178.16C121.244 177.83 121.602 177.607 122.004 177.537C125.112 177.025 132.177 175.983 135.727 176.477C138.376 176.848 139.065 178.385 139.18 179.648C139.197 179.869 139.168 180.091 139.093 180.3C139.018 180.509 138.899 180.699 138.744 180.858C138.589 181.017 138.402 181.141 138.196 181.221C137.989 181.302 137.767 181.338 137.546 181.325L122.198 180.637C121.836 180.618 121.492 180.476 121.223 180.233C120.954 179.99 120.778 179.661 120.723 179.303Z" fill="black"/>
<path d="M129.599 333.574L135.294 337.531L144.823 324.611L139.127 320.664L129.599 333.574Z" fill="#E58A7B"/>
<path d="M116.317 333.318L122.331 336.745L130.764 323.084L124.751 319.657L116.317 333.318Z" fill="#E58A7B"/>
<path d="M144.814 324.611L139.904 331.27L134.208 327.322L139.118 320.664L144.814 324.611Z" fill="#CF6F64"/>
<path d="M124.741 319.657L130.764 323.092L126.419 330.13L120.396 326.695L124.741 319.657Z" fill="#CF6F64"/>
<path d="M134.402 222.432C134.402 222.432 156.638 250.451 152.461 277.252C149.096 298.896 129.58 328.205 129.58 328.205L120.405 323.649C126.873 310.69 132.391 297.279 136.919 283.522C138.315 279.251 138.722 274.719 138.11 270.267C137.499 265.815 135.883 261.561 133.386 257.825C122.119 241.373 104.069 251.167 116.211 222.432H134.402Z" fill="#0000BF"/>
<path opacity="0.6" d="M134.402 222.432C134.402 222.432 156.638 250.451 152.461 277.252C149.096 298.896 129.58 328.205 129.58 328.205L120.405 323.649C126.873 310.69 132.391 297.279 136.919 283.522C138.315 279.251 138.722 274.719 138.11 270.267C137.499 265.815 135.883 261.561 133.386 257.825C122.119 241.373 104.069 251.167 116.211 222.432H134.402Z" fill="black"/>
<path opacity="0.4" d="M145.308 240.428L142.076 237.214C142.076 237.47 148.337 276.122 150.094 286.983C151.131 283.81 151.926 280.563 152.47 277.27C154.536 264.121 150.218 250.689 145.308 240.428Z" fill="black"/>
<path d="M144.329 222.432C144.329 222.432 171.103 257.648 171.862 278.762C172.489 296.424 142.721 330.643 142.721 330.643L134.067 325.044C134.067 325.044 151.49 300.742 155.879 280.891C154.184 261.216 118.331 222.432 118.331 222.432H144.329Z" fill="#0000BF"/>
<path opacity="0.6" d="M144.329 222.432C144.329 222.432 171.103 257.648 171.862 278.762C172.489 296.424 142.721 330.643 142.721 330.643L134.067 325.044C134.067 325.044 151.49 300.742 155.879 280.891C154.184 261.216 118.331 222.432 118.331 222.432H144.329Z" fill="black"/>
<path d="M111.204 180.407C108.343 181.087 105.597 191.489 105.597 191.489L116.785 198.96C116.785 198.96 120.512 190.73 119.205 187.127C117.854 183.374 114.798 179.55 111.204 180.407Z" fill="#0000BF"/>
<path opacity="0.2" d="M113.394 187.109L112.617 196.178L116.776 198.969C117.925 196.383 118.775 193.676 119.311 190.898L113.394 187.109Z" fill="black"/>
<path d="M147.639 180.61C147.639 180.61 150.942 181.767 144.328 222.423H116.193C116.67 210.943 116.679 203.879 111.204 180.407C115.144 179.595 119.137 179.07 123.152 178.835C127.406 178.53 131.676 178.53 135.93 178.835C141.423 179.339 147.639 180.61 147.639 180.61Z" fill="#0000BF"/>
<path d="M150.5 187.109C151.136 188.875 151.807 190.774 152.514 192.602C153.22 194.43 153.891 196.311 154.607 198.165L156.77 203.711L157.318 205.097L157.6 205.786L157.733 206.13C157.733 206.192 157.733 206.192 157.733 206.183C157.571 205.956 157.36 205.769 157.114 205.636C156.765 205.43 156.371 205.312 155.966 205.291C155.63 205.281 155.296 205.344 154.986 205.477C154.58 205.662 154.58 205.742 154.589 205.733C154.662 205.674 154.728 205.606 154.783 205.53C155.272 204.888 155.695 204.199 156.046 203.472C156.461 202.66 156.858 201.795 157.256 200.92C158.033 199.154 158.748 197.326 159.463 195.481C160.179 193.635 160.859 191.772 161.521 189.891L163.534 184.257L166.934 185.14C166.263 189.167 165.398 193.087 164.356 197.079C163.852 199.066 163.261 201.035 162.589 203.022C162.254 204.02 161.883 205.009 161.459 206.024C161.017 207.127 160.473 208.185 159.834 209.186C159.599 209.523 159.34 209.841 159.057 210.139C158.606 210.627 158.059 211.014 157.45 211.279C156.91 211.511 156.324 211.619 155.737 211.597C155.079 211.572 154.437 211.381 153.874 211.04C153.208 210.625 152.656 210.052 152.266 209.371C152.134 209.142 152.019 208.912 151.94 208.744L151.772 208.409L151.436 207.72L150.765 206.351C149.882 204.514 148.999 202.66 148.231 200.797C147.463 198.933 146.65 197.044 145.891 195.145C145.131 193.246 144.451 191.348 143.807 189.299L150.5 187.109Z" fill="#E58A7B"/>
<path d="M147.639 180.609C151.022 181.413 154.828 191.409 154.828 191.409L144.769 199.966C144.769 199.966 138.261 189.069 139.577 185.475C140.946 181.731 143.224 179.558 147.639 180.609Z" fill="#0000BF"/>
<path d="M165.133 181.096L168.666 178.146L171.121 181.97L169.31 185.158C169.31 185.158 166.432 187.807 163.888 186.456C163.485 185.549 163.388 184.535 163.613 183.567C163.837 182.6 164.371 181.732 165.133 181.096Z" fill="#E58A7B"/>
<path d="M175.041 178.155L174.776 179.118L169.186 180.054L168.639 178.146L175.041 178.155Z" fill="#E58A7B"/>
<path d="M143.41 331.093L133.325 324.576L135.135 321.433L146.465 328.4L143.41 331.093Z" fill="#0000BF"/>
<path d="M126.279 336.285C125.394 336.177 124.544 335.876 123.788 335.402C123.757 335.391 123.73 335.371 123.711 335.344C123.692 335.317 123.682 335.285 123.682 335.252C123.682 335.219 123.692 335.187 123.711 335.16C123.73 335.133 123.757 335.113 123.788 335.102C124.062 335.014 126.438 334.281 127.126 334.846C127.204 334.91 127.263 334.994 127.297 335.089C127.331 335.184 127.339 335.286 127.321 335.385C127.308 335.544 127.256 335.697 127.168 335.83C127.079 335.963 126.959 336.071 126.817 336.144C126.652 336.234 126.467 336.283 126.279 336.285ZM124.292 335.314C125.396 335.879 126.279 336.082 126.702 335.87C126.795 335.819 126.872 335.745 126.928 335.656C126.984 335.566 127.016 335.464 127.02 335.358C127.02 335.217 127.02 335.155 126.941 335.12C126.57 334.819 125.245 335.049 124.274 335.314H124.292Z" fill="#263238"/>
<path d="M123.85 335.464C123.803 335.463 123.759 335.444 123.726 335.411C123.713 335.387 123.706 335.359 123.706 335.332C123.706 335.304 123.713 335.277 123.726 335.252C123.726 335.173 124.3 333.256 125.201 332.824C125.316 332.771 125.441 332.744 125.567 332.744C125.694 332.744 125.819 332.771 125.934 332.824C126.058 332.863 126.165 332.942 126.239 333.05C126.312 333.157 126.348 333.286 126.34 333.415C126.278 334.21 124.662 335.305 123.92 335.491L123.85 335.464ZM125.563 333.053C125.477 333.056 125.393 333.077 125.316 333.115C124.768 333.38 124.318 334.413 124.097 335.04C124.874 334.714 125.943 333.848 125.978 333.362C125.978 333.283 125.978 333.186 125.775 333.098C125.709 333.062 125.637 333.038 125.563 333.027V333.053Z" fill="#263238"/>
<path d="M138.88 340.1C137.882 340.1 136.495 338.82 135.736 338.034C135.716 338.007 135.706 337.974 135.706 337.941C135.706 337.908 135.716 337.875 135.736 337.848C135.753 337.82 135.778 337.797 135.808 337.781C135.837 337.766 135.87 337.758 135.904 337.76C136.257 337.76 139.321 338.219 139.754 339.085C139.8 339.162 139.824 339.251 139.824 339.341C139.824 339.431 139.8 339.519 139.754 339.597C139.689 339.732 139.591 339.848 139.469 339.934C139.347 340.021 139.205 340.075 139.056 340.091L138.88 340.1ZM136.319 338.157C137.431 339.235 138.412 339.835 138.968 339.765C139.065 339.752 139.158 339.715 139.238 339.658C139.318 339.601 139.383 339.526 139.427 339.438C139.447 339.408 139.457 339.372 139.457 339.336C139.457 339.3 139.447 339.265 139.427 339.235C139.198 338.758 137.564 338.352 136.319 338.157Z" fill="#263238"/>
<path d="M136.416 338.113C136.218 338.119 136.02 338.104 135.824 338.069C135.797 338.065 135.771 338.054 135.75 338.037C135.728 338.02 135.711 337.997 135.701 337.972C135.688 337.946 135.681 337.917 135.681 337.888C135.681 337.859 135.688 337.83 135.701 337.804C135.754 337.742 136.946 336.303 138.076 336.206C138.396 336.181 138.713 336.282 138.959 336.488C139.304 336.789 139.286 337.054 139.198 337.221C138.977 337.822 137.449 338.113 136.416 338.113ZM136.186 337.787C137.175 337.84 138.756 337.513 138.959 337.08C138.959 337.08 139.03 336.939 138.8 336.745C138.709 336.665 138.602 336.605 138.487 336.569C138.371 336.532 138.25 336.52 138.129 336.533C137.368 336.745 136.69 337.186 136.186 337.795V337.787Z" fill="#263238"/>
<path d="M124.088 334.51L116.599 332.391C116.47 332.352 116.331 332.362 116.209 332.419C116.087 332.476 115.99 332.576 115.937 332.7L113.411 338.378C113.352 338.523 113.324 338.68 113.33 338.837C113.335 338.994 113.374 339.148 113.443 339.289C113.512 339.43 113.611 339.554 113.731 339.655C113.852 339.755 113.993 339.828 114.144 339.87C116.794 340.559 118.065 340.753 121.359 341.698C123.39 342.263 126.287 343.314 129.086 344.109C131.885 344.904 132.821 342.175 131.735 341.592C126.825 338.996 126.437 337.177 125.094 335.234C124.854 334.882 124.498 334.626 124.088 334.51Z" fill="#0000BF"/>
<path d="M135.939 337.001L129.545 332.585C129.437 332.506 129.303 332.47 129.17 332.483C129.036 332.496 128.912 332.558 128.821 332.656L124.583 337.213C124.479 337.33 124.402 337.469 124.357 337.619C124.311 337.769 124.298 337.926 124.318 338.082C124.338 338.237 124.391 338.386 124.473 338.52C124.555 338.653 124.665 338.767 124.794 338.855C127.046 340.365 128.212 340.975 131.029 342.926C132.795 344.127 136.213 346.794 138.597 348.454C140.981 350.114 142.756 347.836 141.908 346.935C138.111 342.882 137.281 340.339 136.654 338.034C136.545 337.616 136.292 337.25 135.939 337.001Z" fill="#0000BF"/>
<path d="M130.755 328.788L119.231 323.057L120.424 319.931L132.734 325.971L130.755 328.788Z" fill="#0000BF"/>
<path d="M115.769 220.772L114.798 223.315C114.701 223.509 114.93 223.712 115.257 223.712H144.469C144.725 223.712 144.937 223.589 144.955 223.43L145.202 220.904C145.202 220.736 144.999 220.586 144.725 220.586H116.228C116.143 220.578 116.056 220.591 115.976 220.623C115.896 220.655 115.825 220.706 115.769 220.772Z" fill="#0000BF"/>
<path opacity="0.4" d="M115.769 220.772L114.798 223.315C114.701 223.509 114.93 223.712 115.257 223.712H144.469C144.725 223.712 144.937 223.589 144.955 223.43L145.202 220.904C145.202 220.736 144.999 220.586 144.725 220.586H116.228C116.143 220.578 116.056 220.591 115.976 220.623C115.896 220.655 115.825 220.706 115.769 220.772Z" fill="white"/>
<path d="M120.371 223.959H119.602C119.452 223.959 119.337 223.88 119.346 223.783L119.708 220.507C119.708 220.418 119.85 220.339 120 220.339H120.768C120.918 220.339 121.033 220.418 121.024 220.507L120.662 223.783C120.653 223.88 120.521 223.959 120.371 223.959Z" fill="#0000BF"/>
<path d="M138.385 223.959H137.626C137.476 223.959 137.361 223.88 137.37 223.783L137.723 220.507C137.723 220.418 137.873 220.339 138.023 220.339H138.783C138.933 220.339 139.056 220.418 139.039 220.507L138.685 223.783C138.641 223.88 138.544 223.959 138.385 223.959Z" fill="#0000BF"/>
<g style="mix-blend-mode:multiply">
<path d="M119.699 373.506C132.765 373.506 143.357 372.739 143.357 371.793C143.357 370.847 132.765 370.08 119.699 370.08C106.634 370.08 96.042 370.847 96.042 371.793C96.042 372.739 106.634 373.506 119.699 373.506Z" fill="#F5F5F5"/>
</g>
<path d="M134.111 369.374C129.925 368.156 125.28 366.593 122.472 364.959C122.393 364.906 122.304 364.88 122.225 364.835V345.885H130.693C131.336 345.847 131.94 345.564 132.382 345.096C132.824 344.627 133.07 344.008 133.07 343.364C133.07 342.72 132.824 342.1 132.382 341.631C131.94 341.163 131.336 340.881 130.693 340.842H122.269V254.461H117.183V340.842H108.767C108.423 340.822 108.079 340.872 107.756 340.99C107.432 341.107 107.136 341.29 106.885 341.526C106.635 341.762 106.435 342.047 106.299 342.363C106.162 342.679 106.092 343.019 106.092 343.364C106.092 343.708 106.162 344.048 106.299 344.364C106.435 344.681 106.635 344.965 106.885 345.201C107.136 345.438 107.432 345.62 107.756 345.737C108.079 345.855 108.423 345.905 108.767 345.885H117.183V364.809C117.103 364.809 117.024 364.879 116.944 364.932C114.092 366.593 109.482 368.156 105.296 369.348C105.014 369.433 104.771 369.617 104.612 369.866C104.453 370.115 104.389 370.413 104.43 370.705C104.472 370.998 104.617 371.266 104.839 371.461C105.061 371.655 105.345 371.764 105.641 371.767H133.766C134.049 371.748 134.316 371.633 134.523 371.44C134.731 371.248 134.866 370.99 134.906 370.71C134.946 370.43 134.889 370.145 134.745 369.902C134.6 369.658 134.376 369.472 134.111 369.374Z" fill="#E0E0E0"/>
<path d="M135.409 245.665H104.007C101.481 245.665 99.4326 247.713 99.4326 250.239V259.573C99.4326 262.1 101.481 264.148 104.007 264.148H135.409C137.935 264.148 139.983 262.1 139.983 259.573V250.239C139.983 247.713 137.935 245.665 135.409 245.665Z" fill="#0000BF"/>
<path d="M103.716 264.156V265.763C103.716 267.088 105.155 268.165 106.921 268.165H132.53C134.296 268.165 135.736 267.088 135.736 265.763V264.156H103.716Z" fill="#0000BF"/>
<path opacity="0.3" d="M103.716 264.156V265.763C103.716 267.088 105.155 268.165 106.921 268.165H132.53C134.296 268.165 135.736 267.088 135.736 265.763V264.156H103.716Z" fill="white"/>
</svg>
