<svg width="114" height="85" viewBox="0 0 114 85" fill="none" xmlns="http://www.w3.org/2000/svg">
<g clip-path="url(#clip0_159_9323)">
<mask id="mask0_159_9323" style="mask-type:luminance" maskUnits="userSpaceOnUse" x="14" y="45" width="86" height="17">
<path d="M14.1855 45.7559H99.1398V61.4151H14.1855V45.7559Z" fill="white"/>
</mask>
<g mask="url(#mask0_159_9323)">
<path d="M14.1885 61.24V45.909H16.7287L25.5989 58.0643L24.9418 58.2833V45.909H27.4824V61.24H24.9418L16.0936 49.1065L16.7727 48.8876V61.24H14.1885ZM38.389 45.7559C39.5279 45.7559 40.5892 45.953 41.5735 46.3473C42.5605 46.7413 43.422 47.2961 44.1578 48.0116C44.8965 48.727 45.4732 49.5549 45.8879 50.4952C46.3055 51.4385 46.5145 52.4576 46.5145 53.5525C46.5145 54.6478 46.3055 55.6725 45.8879 56.6275C45.4732 57.5853 44.8965 58.422 44.1578 59.1374C43.422 59.8529 42.5605 60.4107 41.5735 60.8106C40.5892 61.2138 39.5279 61.4151 38.389 61.4151C37.2501 61.4151 36.1872 61.2138 35.2003 60.8106C34.2161 60.4107 33.3548 59.8529 32.6158 59.1374C31.88 58.422 31.3033 57.5853 30.8856 56.6275C30.471 55.6725 30.2638 54.6478 30.2638 53.5525C30.2638 52.4576 30.471 51.4355 30.8856 50.4863C31.3033 49.5375 31.88 48.7081 32.6158 47.9986C33.3548 47.2918 34.2161 46.7413 35.2003 46.3473C36.1872 45.953 37.2501 45.7559 38.389 45.7559ZM38.4108 47.9461C37.6517 47.9461 36.9393 48.0874 36.2734 48.3708C35.6106 48.657 35.0235 49.0555 34.5126 49.5667C34.0015 50.0776 33.603 50.672 33.3167 51.3493C33.0334 52.0299 32.8917 52.7642 32.8917 53.5525C32.8917 54.3412 33.0378 55.0784 33.33 55.7646C33.6219 56.4508 34.0233 57.0522 34.5345 57.5693C35.0454 58.0891 35.6324 58.4949 36.2953 58.7871C36.9611 59.079 37.6662 59.2251 38.4108 59.2251C39.1555 59.2251 39.8594 59.079 40.5222 58.7871C41.1881 58.4949 41.7692 58.0891 42.2657 57.5693C42.7621 57.0522 43.1516 56.4508 43.435 55.7646C43.7213 55.0784 43.8644 54.3412 43.8644 53.5525C43.8644 52.7642 43.7213 52.0299 43.435 51.3493C43.1516 50.672 42.7621 50.0776 42.2657 49.5667C41.7692 49.0555 41.1881 48.657 40.5222 48.3708C39.8594 48.0874 39.1555 47.9461 38.4108 47.9461ZM53.4307 61.24L47.3246 45.909H50.1018L54.8324 58.5241L59.6113 45.909H62.3006L56.1071 61.24H53.4307ZM62.3882 61.24L69.1557 45.909H71.8058L78.5075 61.24H75.748L70.4039 48.5154L65.0819 61.24H62.3882ZM65.761 57.6918V55.5019H74.9375V57.6918H65.761ZM90.3559 53.3775L85.1653 45.909H88.166L91.911 51.3626L95.6778 45.909H98.7003L93.5534 53.268L99.1383 61.24H96.0503L91.911 55.3266L87.7935 61.24H84.7713L90.3559 53.3775Z" fill="white"/>
</g>
<mask id="mask1_159_9323" style="mask-type:luminance" maskUnits="userSpaceOnUse" x="14" y="65" width="86" height="7">
<path d="M14.1855 65.1123H99.1398V71.6573H14.1855V65.1123Z" fill="white"/>
</mask>
<g mask="url(#mask1_159_9323)">
<path d="M14.2625 70.2245C14.2147 70.2245 14.1904 70.2002 14.1904 70.1524V65.2564C14.1904 65.2083 14.2147 65.1843 14.2625 65.1843H14.6296C14.6778 65.1843 14.7016 65.2083 14.7016 65.2564V70.1524C14.7016 70.2002 14.6778 70.2245 14.6296 70.2245H14.2625ZM17.4665 66.5308C17.8505 66.5308 18.1563 66.6435 18.3838 66.869C18.6122 67.0948 18.7267 67.397 18.7267 67.7762V70.1524C18.7267 70.2002 18.7025 70.2245 18.6547 70.2245H18.2873C18.2395 70.2245 18.2153 70.2002 18.2153 70.1524V67.8772C18.2153 67.613 18.1347 67.397 17.9736 67.2291C17.8133 67.0611 17.6058 66.977 17.3514 66.977C17.0872 66.977 16.8739 67.0588 16.7107 67.222C16.5475 67.3852 16.4657 67.5986 16.4657 67.8628V70.1524C16.4657 70.2002 16.4418 70.2245 16.3937 70.2245H16.0265C15.9784 70.2245 15.9545 70.2002 15.9545 70.1524V66.653C15.9545 66.6051 15.9784 66.5813 16.0265 66.5813H16.3937C16.4418 66.5813 16.4657 66.6051 16.4657 66.653V66.9626C16.4657 66.9723 16.4693 66.9794 16.4757 66.9844C16.4834 66.9891 16.4899 66.9868 16.4946 66.977C16.7056 66.6796 17.0297 66.5308 17.4665 66.5308ZM21.3476 66.5308C21.7316 66.5308 22.0373 66.6435 22.2649 66.869C22.4933 67.0948 22.6075 67.397 22.6075 67.7762V70.1524C22.6075 70.2002 22.5833 70.2245 22.5355 70.2245H22.1683C22.1203 70.2245 22.0963 70.2002 22.0963 70.1524V67.8772C22.0963 67.613 22.0155 67.397 21.8543 67.2291C21.6941 67.0611 21.4866 66.977 21.2322 66.977C20.9683 66.977 20.7546 67.0588 20.5914 67.222C20.4282 67.3852 20.3468 67.5986 20.3468 67.8628V70.1524C20.3468 70.2002 20.3226 70.2245 20.2748 70.2245H19.9073C19.8595 70.2245 19.8353 70.2002 19.8353 70.1524V66.653C19.8353 66.6051 19.8595 66.5813 19.9073 66.5813H20.2748C20.3226 66.5813 20.3468 66.6051 20.3468 66.653V66.9626C20.3468 66.9723 20.35 66.9794 20.3568 66.9844C20.3645 66.9891 20.3706 66.9868 20.3754 66.977C20.5867 66.6796 20.9108 66.5308 21.3476 66.5308ZM25.054 70.282C24.7083 70.282 24.4108 70.1931 24.1611 70.0155C23.9117 69.8381 23.7388 69.5931 23.6429 69.2812C23.5756 69.0604 23.5419 68.7653 23.5419 68.3954C23.5419 68.026 23.5756 67.7332 23.6429 67.5171C23.7341 67.2099 23.9044 66.9676 24.1541 66.7899C24.4037 66.6122 24.706 66.5234 25.0613 66.5234C25.4022 66.5234 25.6965 66.6122 25.9441 66.7899C26.1908 66.9676 26.3596 67.2075 26.4508 67.5101C26.5182 67.7163 26.5518 68.0114 26.5518 68.3954C26.5518 68.7845 26.5182 69.0796 26.4508 69.2812C26.3596 69.5931 26.1908 69.8381 25.9441 70.0155C25.6965 70.1931 25.3995 70.282 25.054 70.282ZM25.054 69.8354C25.2844 69.8354 25.4813 69.7717 25.6445 69.6439C25.8077 69.5173 25.9181 69.3458 25.9757 69.13C26.0187 68.9571 26.0406 68.7148 26.0406 68.4028C26.0406 68.0859 26.0214 67.8436 25.9831 67.6756C25.9252 67.4596 25.8139 67.2878 25.649 67.16C25.4827 67.0334 25.2821 66.9699 25.0469 66.9699C24.8117 66.9699 24.6124 67.0334 24.4492 67.16C24.286 67.2878 24.1756 67.4596 24.1181 67.6756C24.0797 67.8436 24.0605 68.0859 24.0605 68.4028C24.0605 68.7196 24.0797 68.9619 24.1181 69.13C24.1709 69.3458 24.2803 69.5173 24.4463 69.6439C24.6115 69.7717 24.814 69.8354 25.054 69.8354ZM28.3733 70.2245C28.3303 70.2245 28.3013 70.2053 28.2869 70.1669L27.106 66.6604L27.0989 66.6314C27.0989 66.5978 27.1205 66.5813 27.1636 66.5813H27.5741C27.6172 66.5813 27.6461 66.6004 27.6606 66.6388L28.5605 69.4612C28.5652 69.4707 28.5726 69.4756 28.582 69.4756C28.5918 69.4756 28.5989 69.4707 28.6039 69.4612L29.5037 66.6388C29.5182 66.6004 29.5468 66.5813 29.5902 66.5813L30.0004 66.5883C30.0533 66.5883 30.0725 66.6146 30.058 66.6674L28.8774 70.1669C28.863 70.2053 28.8341 70.2245 28.791 70.2245H28.3733ZM32.0455 66.5234C32.4773 66.5234 32.8111 66.6338 33.0463 66.8548C33.2815 67.0756 33.399 67.3684 33.399 67.7332V70.1524C33.399 70.2002 33.375 70.2245 33.327 70.2245H32.9598C32.9117 70.2245 32.8878 70.2002 32.8878 70.1524V69.8573C32.8878 69.8475 32.8839 69.8404 32.8763 69.8354C32.8695 69.8308 32.8616 69.8331 32.8518 69.8428C32.7317 69.9868 32.5758 70.0957 32.3837 70.1695C32.1918 70.2445 31.9782 70.282 31.743 70.282C31.4021 70.282 31.1167 70.1955 30.8862 70.0229C30.6556 69.8499 30.5406 69.586 30.5406 69.2307C30.5406 68.8707 30.671 68.5861 30.9322 68.3768C31.1943 68.1685 31.5582 68.0643 32.024 68.0643H32.8588C32.878 68.0643 32.8878 68.0549 32.8878 68.0354V67.7618C32.8878 67.5171 32.819 67.3238 32.6818 67.1815C32.5454 67.0405 32.3335 66.9699 32.0455 66.9699C31.815 66.9699 31.6278 67.0142 31.4838 67.1024C31.3398 67.1916 31.2509 67.3156 31.2173 67.474C31.2028 67.5218 31.1743 67.5434 31.1308 67.5387L30.7422 67.4882C30.6893 67.4788 30.6677 67.4596 30.6775 67.4307C30.7159 67.1618 30.8599 66.9434 31.1093 66.7754C31.359 66.6075 31.671 66.5234 32.0455 66.5234ZM31.8439 69.8428C32.1269 69.8428 32.3719 69.7717 32.5782 69.6297C32.7845 69.4886 32.8878 69.298 32.8878 69.058V68.4964C32.8878 68.4772 32.878 68.4675 32.8588 68.4675H32.1031C31.786 68.4675 31.5316 68.5324 31.3398 68.662C31.1477 68.7916 31.0517 68.9715 31.0517 69.2021C31.0517 69.4131 31.1246 69.5725 31.2707 69.6799C31.4174 69.7885 31.6087 69.8428 31.8439 69.8428ZM36.0703 66.934C36.0703 66.982 36.0464 67.006 35.9983 67.006H35.1846C35.1654 67.006 35.156 67.0154 35.156 67.0346V69.1587C35.156 69.3892 35.2073 69.5509 35.31 69.6439C35.4136 69.738 35.5759 69.7853 35.7967 69.7853H35.9767C36.0246 69.7853 36.0487 69.8091 36.0487 69.8573V70.1524C36.0487 70.2002 36.0246 70.2245 35.9767 70.2245C35.9192 70.2292 35.8304 70.2315 35.7102 70.2315C35.3646 70.2315 35.1032 70.1669 34.9254 70.037C34.7477 69.9074 34.659 69.6675 34.659 69.3172V67.0346C34.659 67.0154 34.6495 67.006 34.6303 67.006H34.1911C34.1431 67.006 34.1191 66.982 34.1191 66.934V66.653C34.1191 66.6051 34.1431 66.5813 34.1911 66.5813H34.6303C34.6495 66.5813 34.659 66.5715 34.659 66.5523V65.7171C34.659 65.669 34.6831 65.645 34.731 65.645H35.084C35.1317 65.645 35.156 65.669 35.156 65.7171V66.5523C35.156 66.5715 35.1654 66.5813 35.1846 66.5813H35.9983C36.0464 66.5813 36.0703 66.6051 36.0703 66.653V66.934ZM37.4008 65.9186C37.2856 65.9186 37.1898 65.8803 37.1127 65.8036C37.036 65.7268 36.9976 65.6306 36.9976 65.5155C36.9976 65.3953 37.036 65.2979 37.1127 65.223C37.1898 65.1493 37.2856 65.1123 37.4008 65.1123C37.5162 65.1123 37.6121 65.1493 37.6888 65.223C37.7656 65.2979 37.804 65.3953 37.804 65.5155C37.804 65.6306 37.7656 65.7268 37.6888 65.8036C37.6121 65.8803 37.5162 65.9186 37.4008 65.9186ZM37.1992 70.2171C37.1514 70.2171 37.1272 70.1931 37.1272 70.1451V66.6459C37.1272 66.5978 37.1514 66.5739 37.1992 66.5739H37.5663C37.6145 66.5739 37.6383 66.5978 37.6383 66.6459V70.1451C37.6383 70.1931 37.6145 70.2171 37.5663 70.2171H37.1992ZM40.4032 66.5308C40.7872 66.5308 41.0936 66.6435 41.322 66.869C41.5495 67.0948 41.6632 67.397 41.6632 67.7762V70.1524C41.6632 70.2002 41.6392 70.2245 41.5915 70.2245H41.224C41.1762 70.2245 41.152 70.2002 41.152 70.1524V67.8772C41.152 67.613 41.072 67.397 40.9117 67.2291C40.7503 67.0611 40.5425 66.977 40.2882 66.977C40.0239 66.977 39.8106 67.0588 39.6474 67.222C39.4842 67.3852 39.4024 67.5986 39.4024 67.8628V70.1524C39.4024 70.2002 39.3785 70.2245 39.3304 70.2245H38.9632C38.9152 70.2245 38.8912 70.2002 38.8912 70.1524V66.653C38.8912 66.6051 38.9152 66.5813 38.9632 66.5813H39.3304C39.3785 66.5813 39.4024 66.6051 39.4024 66.653V66.9626C39.4024 66.9723 39.4063 66.9794 39.4139 66.9844C39.4207 66.9891 39.4266 66.9868 39.4314 66.977C39.6424 66.6796 39.9664 66.5308 40.4032 66.5308ZM45.0186 66.653C45.0186 66.6051 45.0425 66.5813 45.0906 66.5813H45.4577C45.5059 66.5813 45.5298 66.6051 45.5298 66.653V70.1019C45.5298 70.6397 45.3749 71.0331 45.0646 71.2828C44.7556 71.5325 44.3298 71.657 43.7873 71.657C43.6769 71.657 43.5931 71.6547 43.5352 71.65C43.4874 71.6452 43.4632 71.6187 43.4632 71.5709L43.4777 71.2397C43.4777 71.2155 43.4851 71.1978 43.4993 71.1863C43.5137 71.1739 43.5305 71.17 43.5497 71.1748L43.7442 71.1818C44.1904 71.1818 44.5145 71.0945 44.7161 70.9198C44.9177 70.7441 45.0186 70.4668 45.0186 70.0875V69.8213C45.0186 69.8116 45.0148 69.8054 45.0071 69.8024C45.0003 69.8006 44.992 69.8045 44.9826 69.8139C44.7619 70.1019 44.4472 70.246 44.0393 70.246C43.7274 70.246 43.4499 70.1618 43.207 69.994C42.965 69.826 42.8033 69.5884 42.7219 69.2812C42.664 69.0843 42.6354 68.7916 42.6354 68.4028C42.6354 68.1915 42.641 68.0139 42.6525 67.8698C42.6652 67.7258 42.6905 67.5962 42.7289 67.4811C42.8154 67.193 42.9712 66.9614 43.197 66.7855C43.4225 66.6107 43.6937 66.5234 44.0104 66.5234C44.4377 66.5234 44.7619 66.665 44.9826 66.9484C44.992 66.9578 45.0003 66.9602 45.0071 66.9555C45.0148 66.9507 45.0186 66.9434 45.0186 66.934V66.653ZM44.9826 69.1226C44.9971 69.0506 45.0065 68.9619 45.0112 68.8565C45.0163 68.7508 45.0186 68.597 45.0186 68.3954C45.0186 68.1508 45.0163 67.9861 45.0112 67.9017C45.0065 67.8182 44.9947 67.7403 44.9755 67.6682C44.9369 67.4667 44.8418 67.2996 44.6901 67.1671C44.5396 67.0357 44.349 66.9699 44.1184 66.9699C43.893 66.9699 43.702 67.0346 43.5456 67.1645C43.39 67.294 43.2808 67.4619 43.2186 67.6682C43.1704 67.822 43.1466 68.0619 43.1466 68.3884C43.1466 68.7387 43.1704 68.981 43.2186 69.1156C43.2666 69.3172 43.3708 69.4836 43.5311 69.6153C43.6922 69.7478 43.8882 69.8139 44.1184 69.8139C44.3536 69.8139 44.5467 69.7492 44.6975 69.6197C44.8492 69.4898 44.9443 69.3242 44.9826 69.1226ZM49.3229 66.5234C49.7547 66.5234 50.0885 66.6338 50.3237 66.8548C50.5589 67.0756 50.6764 67.3684 50.6764 67.7332V70.1524C50.6764 70.2002 50.6525 70.2245 50.6044 70.2245H50.2372C50.1892 70.2245 50.1652 70.2002 50.1652 70.1524V69.8573C50.1652 69.8475 50.162 69.8404 50.1552 69.8354C50.1475 69.8308 50.1387 69.8331 50.1293 69.8428C50.0091 69.9868 49.8533 70.0957 49.6611 70.1695C49.4693 70.2445 49.2556 70.282 49.0204 70.282C48.6795 70.282 48.3941 70.1955 48.1636 70.0229C47.9331 69.8499 47.818 69.586 47.818 69.2307C47.818 68.8707 47.949 68.5861 48.2111 68.3768C48.4723 68.1685 48.8356 68.0643 49.3011 68.0643H50.1363C50.1555 68.0643 50.1652 68.0549 50.1652 68.0354V67.7618C50.1652 67.5171 50.0971 67.3238 49.9607 67.1815C49.8235 67.0405 49.6106 66.9699 49.3229 66.9699C49.0924 66.9699 48.9053 67.0142 48.7612 67.1024C48.6172 67.1916 48.5284 67.3156 48.4948 67.474C48.4803 67.5218 48.4516 67.5434 48.4083 67.5387L48.0196 67.4882C47.9667 67.4788 47.9452 67.4596 47.9546 67.4307C47.9933 67.1618 48.137 66.9434 48.3867 66.7754C48.6364 66.6075 48.9484 66.5234 49.3229 66.5234ZM49.1214 69.8428C49.4044 69.8428 49.6493 69.7717 49.8556 69.6297C50.0619 69.4886 50.1652 69.298 50.1652 69.058V68.4964C50.1652 68.4772 50.1555 68.4675 50.1363 68.4675H49.3804C49.0635 68.4675 48.8091 68.5324 48.6172 68.662C48.4251 68.7916 48.3292 68.9715 48.3292 69.2021C48.3292 69.4131 48.4027 69.5725 48.5496 69.6799C48.6954 69.7885 48.8861 69.8428 49.1214 69.8428ZM53.1172 70.282C52.7716 70.282 52.4756 70.1917 52.2289 70.0113C51.9812 69.8316 51.8115 69.5884 51.7203 69.2812C51.6581 69.0698 51.6268 68.7724 51.6268 68.3884C51.6268 68.0427 51.6581 67.75 51.7203 67.5101C51.8068 67.2122 51.9747 66.9732 52.2244 66.7929C52.4741 66.6131 52.7716 66.5234 53.1172 66.5234C53.4675 66.5234 53.7716 66.6122 54.0289 66.7899C54.285 66.9676 54.4519 67.1883 54.5286 67.4522C54.5525 67.5387 54.5669 67.6107 54.5716 67.6682V67.6827C54.5716 67.7163 54.5501 67.7379 54.507 67.7476L54.1469 67.7978H54.1325C54.0989 67.7978 54.0773 67.7762 54.0676 67.7332L54.046 67.6251C54.0029 67.4427 53.8973 67.2878 53.7293 67.16C53.5614 67.0334 53.3571 66.9699 53.1172 66.9699C52.8773 66.9699 52.6771 67.0334 52.5169 67.16C52.3554 67.2878 52.251 67.4572 52.2029 67.6682C52.1598 67.8507 52.1379 68.0932 52.1379 68.3954C52.1379 68.7125 52.1598 68.9571 52.2029 69.13C52.251 69.3458 52.3554 69.5173 52.5169 69.6439C52.6771 69.7717 52.8773 69.8354 53.1172 69.8354C53.3525 69.8354 53.5555 69.7741 53.7264 69.6513C53.8964 69.5294 54.0029 69.3724 54.046 69.1802V69.1516L54.0534 69.1226C54.0582 69.0749 54.0867 69.0557 54.1396 69.0651L54.4926 69.1226C54.5403 69.1324 54.5622 69.1587 54.5572 69.2021L54.5286 69.3458C54.4566 69.6244 54.291 69.8499 54.0316 70.0229C53.7724 70.1955 53.4675 70.282 53.1172 70.282ZM56.8398 70.282C56.4942 70.282 56.1976 70.1917 55.9497 70.0113C55.7029 69.8316 55.5341 69.5884 55.4429 69.2812C55.3806 69.0698 55.3493 68.7724 55.3493 68.3884C55.3493 68.0427 55.3806 67.75 55.4429 67.5101C55.5294 67.2122 55.6973 66.9732 55.947 66.7929C56.1964 66.6131 56.4942 66.5234 56.8398 66.5234C57.1902 66.5234 57.4935 66.6122 57.7497 66.7899C58.0071 66.9676 58.1741 67.1883 58.2509 67.4522C58.2751 67.5387 58.2893 67.6107 58.2943 67.6682V67.6827C58.2943 67.7163 58.2727 67.7379 58.2293 67.7476L57.8693 67.7978H57.855C57.8214 67.7978 57.7999 67.7762 57.7901 67.7332L57.7686 67.6251C57.7252 67.4427 57.6198 67.2878 57.4517 67.16C57.2837 67.0334 57.0798 66.9699 56.8398 66.9699C56.5998 66.9699 56.3992 67.0334 56.2377 67.16C56.0774 67.2878 55.9733 67.4572 55.9254 67.6682C55.8821 67.8507 55.8605 68.0932 55.8605 68.3954C55.8605 68.7125 55.8821 68.9571 55.9254 69.13C55.9733 69.3458 56.0774 69.5173 56.2377 69.6439C56.3992 69.7717 56.5998 69.8354 56.8398 69.8354C57.075 69.8354 57.2775 69.7741 57.4475 69.6513C57.6184 69.5294 57.7252 69.3724 57.7686 69.1802V69.1516L57.7757 69.1226C57.7804 69.0749 57.8093 69.0557 57.8621 69.0651L58.2148 69.1226C58.263 69.1324 58.2845 69.1587 58.2798 69.2021L58.2509 69.3458C58.1789 69.6244 58.0133 69.8499 57.7542 70.0229C57.495 70.1955 57.1902 70.282 56.8398 70.282ZM61.9805 67.7907C61.9997 67.925 62.0095 68.0932 62.0095 68.2948V68.525C62.0095 68.5731 61.9855 68.597 61.9375 68.597H59.6117C59.5926 68.597 59.5831 68.6068 59.5831 68.6259C59.5926 68.8898 59.607 69.0604 59.6262 69.1372C59.679 69.3532 59.7918 69.5235 59.9647 69.6483C60.1374 69.7732 60.3581 69.8354 60.627 69.8354C60.8286 69.8354 61.0063 69.79 61.1598 69.6988C61.3135 69.6076 61.4334 69.4781 61.5198 69.3098C61.5487 69.2667 61.5821 69.2573 61.6207 69.2812L61.9014 69.4468C61.9398 69.4707 61.9496 69.5043 61.9304 69.5476C61.8102 69.7779 61.6302 69.9588 61.3903 70.0904C61.1503 70.223 60.8741 70.2891 60.5621 70.2891C60.2215 70.2843 59.9358 70.2029 59.7053 70.0444C59.4751 69.8859 59.3093 69.6651 59.2086 69.3818C59.1221 69.1516 59.079 68.8204 59.079 68.3884C59.079 68.1868 59.0823 68.0221 59.089 67.8943C59.0967 67.7677 59.115 67.6538 59.1436 67.5531C59.2254 67.2412 59.3895 66.9914 59.6363 66.8044C59.8839 66.6172 60.1831 66.5234 60.5335 66.5234C60.9703 66.5234 61.3061 66.6338 61.5414 66.8548C61.7766 67.0756 61.923 67.3876 61.9805 67.7907ZM60.5335 66.9699C60.2982 66.9699 60.1023 67.0307 59.9458 67.1529C59.7903 67.2757 59.6885 67.4404 59.6406 67.6467C59.6117 67.7476 59.5926 67.9108 59.5831 68.1363C59.5831 68.1555 59.5926 68.1653 59.6117 68.1653H61.4767C61.4959 68.1653 61.5054 68.1555 61.5054 68.1363C61.4959 67.9203 61.4815 67.7668 61.4623 67.6756C61.4094 67.4596 61.3023 67.2878 61.1412 67.16C60.9809 67.0334 60.7781 66.9699 60.5335 66.9699ZM64.1537 70.2604C63.8848 70.2604 63.6463 70.2171 63.4379 70.1309C63.2287 70.0444 63.0678 69.9293 62.9553 69.7853C62.8423 69.6413 62.7856 69.4804 62.7856 69.3027V69.2163C62.7856 69.1684 62.8096 69.1443 62.8577 69.1443H63.2033C63.2511 69.1443 63.2753 69.1684 63.2753 69.2163V69.2741C63.2753 69.4323 63.3582 69.5701 63.5244 69.6873C63.6894 69.8054 63.8968 69.8644 64.1466 69.8644C64.396 69.8644 64.5975 69.8077 64.7513 69.6944C64.9048 69.5822 64.9815 69.4397 64.9815 69.2667C64.9815 69.1469 64.9422 69.0483 64.8634 68.9715C64.7838 68.8948 64.6902 68.8346 64.5827 68.7916C64.4742 68.7484 64.3071 68.6933 64.0817 68.6259C63.8128 68.5493 63.592 68.4722 63.4193 68.3954C63.2464 68.3187 63.1015 68.2116 62.9843 68.0743C62.8663 67.938 62.8072 67.7645 62.8072 67.5531C62.8072 67.2459 62.9273 67.0012 63.1673 66.8188C63.4072 66.6364 63.7239 66.5452 64.1176 66.5452C64.3815 66.5452 64.6158 66.5883 64.8204 66.6748C65.024 66.761 65.1808 66.8796 65.2911 67.0304C65.4018 67.1822 65.457 67.3515 65.457 67.5387V67.5602C65.457 67.6083 65.4327 67.6322 65.385 67.6322H65.0464C64.9983 67.6322 64.9744 67.6083 64.9744 67.5602V67.5387C64.9744 67.3754 64.8968 67.2388 64.7413 67.1284C64.5845 67.018 64.3744 66.9626 64.1105 66.9626C63.8656 66.9626 63.6687 67.0115 63.52 67.1095C63.3712 67.2084 63.2969 67.3441 63.2969 67.5171C63.2969 67.6804 63.3689 67.8052 63.5129 67.8916C63.657 67.9778 63.8801 68.0643 64.1826 68.1508C64.4609 68.2322 64.6864 68.309 64.8593 68.381C65.032 68.453 65.1808 68.5572 65.3056 68.6936C65.4304 68.8308 65.493 69.0099 65.493 69.2307C65.493 69.5427 65.3705 69.7924 65.1255 69.9794C64.8809 70.1669 64.5568 70.2604 64.1537 70.2604ZM67.5088 70.2604C67.2402 70.2604 67.0014 70.2171 66.793 70.1309C66.5838 70.0444 66.423 69.9293 66.3108 69.7853C66.1975 69.6413 66.1408 69.4804 66.1408 69.3027V69.2163C66.1408 69.1684 66.1647 69.1443 66.2129 69.1443H66.5584C66.6066 69.1443 66.6304 69.1684 66.6304 69.2163V69.2741C66.6304 69.4323 66.7134 69.5701 66.8796 69.6873C67.0448 69.8054 67.252 69.8644 67.5017 69.8644C67.7514 69.8644 67.953 69.8077 68.1064 69.6944C68.2602 69.5822 68.3369 69.4397 68.3369 69.2667C68.3369 69.1469 68.2974 69.0483 68.2188 68.9715C68.1392 68.8948 68.0456 68.8346 67.9379 68.7916C67.8296 68.7484 67.6625 68.6933 67.4368 68.6259C67.1682 68.5493 66.9471 68.4722 66.7745 68.3954C66.6015 68.3187 66.4566 68.2116 66.3394 68.0743C66.2214 67.938 66.1624 67.7645 66.1624 67.5531C66.1624 67.2459 66.2825 67.0012 66.5224 66.8188C66.7624 66.6364 67.0793 66.5452 67.4727 66.5452C67.737 66.5452 67.9713 66.5883 68.1755 66.6748C68.3792 66.761 68.5362 66.8796 68.6466 67.0304C68.757 67.1822 68.8121 67.3515 68.8121 67.5387V67.5602C68.8121 67.6083 68.7882 67.6322 68.7401 67.6322H68.4015C68.3538 67.6322 68.3295 67.6083 68.3295 67.5602V67.5387C68.3295 67.3754 68.2519 67.2388 68.0964 67.1284C67.94 67.018 67.7295 66.9626 67.4657 66.9626C67.2208 66.9626 67.0242 67.0115 66.8754 67.1095C66.7264 67.2084 66.652 67.3441 66.652 67.5171C66.652 67.6804 66.724 67.8052 66.8681 67.8916C67.0121 67.9778 67.2352 68.0643 67.5377 68.1508C67.816 68.2322 68.0418 68.309 68.2145 68.381C68.3874 68.453 68.5362 68.5572 68.661 68.6936C68.7855 68.8308 68.8482 69.0099 68.8482 69.2307C68.8482 69.5427 68.7256 69.7924 68.481 69.9794C68.236 70.1669 67.9119 70.2604 67.5088 70.2604ZM72.8514 66.934C72.8514 66.982 72.8275 67.006 72.7794 67.006H71.9656C71.9465 67.006 71.937 67.0154 71.937 67.0346V69.1587C71.937 69.3892 71.9884 69.5509 72.0911 69.6439C72.1947 69.738 72.357 69.7853 72.5778 69.7853H72.7579C72.8056 69.7853 72.8299 69.8091 72.8299 69.8573V70.1524C72.8299 70.2002 72.8056 70.2245 72.7579 70.2245C72.7003 70.2292 72.6114 70.2315 72.4913 70.2315C72.1457 70.2315 71.8842 70.1669 71.7066 70.037C71.5289 69.9074 71.44 69.6675 71.44 69.3172V67.0346C71.44 67.0154 71.4306 67.006 71.4114 67.006H70.9722C70.9241 67.006 70.9002 66.982 70.9002 66.934V66.653C70.9002 66.6051 70.9241 66.5813 70.9722 66.5813H71.4114C71.4306 66.5813 71.44 66.5715 71.44 66.5523V65.7171C71.44 65.669 71.4643 65.645 71.512 65.645H71.865C71.9128 65.645 71.937 65.669 71.937 65.7171V66.5523C71.937 66.5715 71.9465 66.5813 71.9656 66.5813H72.7794C72.8275 66.5813 72.8514 66.6051 72.8514 66.653V66.934ZM75.1181 70.282C74.7725 70.282 74.4746 70.1931 74.2253 70.0155C73.9756 69.8381 73.8026 69.5931 73.7067 69.2812C73.6394 69.0604 73.606 68.7653 73.606 68.3954C73.606 68.026 73.6394 67.7332 73.7067 67.5171C73.7979 67.2099 73.9685 66.9676 74.2179 66.7899C74.4676 66.6122 74.77 66.5234 75.1252 66.5234C75.466 66.5234 75.7603 66.6122 76.0079 66.7899C76.2546 66.9676 76.4234 67.2075 76.5146 67.5101C76.5819 67.7163 76.6156 68.0114 76.6156 68.3954C76.6156 68.7845 76.5819 69.0796 76.5146 69.2812C76.4234 69.5931 76.2546 69.8381 76.0079 70.0155C75.7603 70.1931 75.4636 70.282 75.1181 70.282ZM75.1181 69.8354C75.3483 69.8354 75.5451 69.7717 75.7083 69.6439C75.8716 69.5173 75.982 69.3458 76.0395 69.13C76.0828 68.9571 76.1044 68.7148 76.1044 68.4028C76.1044 68.0859 76.0852 67.8436 76.0469 67.6756C75.9893 67.4596 75.8778 67.2878 75.7127 67.16C75.5466 67.0334 75.3459 66.9699 75.1106 66.9699C74.8754 66.9699 74.6762 67.0334 74.513 67.16C74.3498 67.2878 74.2394 67.4596 74.1818 67.6756C74.1435 67.8436 74.1243 68.0859 74.1243 68.4028C74.1243 68.7196 74.1435 68.9619 74.1818 69.13C74.2347 69.3458 74.3442 69.5173 74.5104 69.6439C74.6754 69.7717 74.8781 69.8354 75.1181 69.8354ZM80.4678 70.282C80.1221 70.282 79.8255 70.1917 79.5776 70.0113C79.3309 69.8316 79.162 69.5884 79.0708 69.2812C79.0086 69.0698 78.9773 68.7724 78.9773 68.3884C78.9773 68.0427 79.0086 67.75 79.0708 67.5101C79.1573 67.2122 79.3253 66.9732 79.5749 66.7929C79.8243 66.6131 80.1221 66.5234 80.4678 66.5234C80.818 66.5234 81.1215 66.6122 81.3777 66.7899C81.635 66.9676 81.8021 67.1883 81.8788 67.4522C81.903 67.5387 81.9171 67.6107 81.9222 67.6682V67.6827C81.9222 67.7163 81.9004 67.7379 81.8572 67.7476L81.4972 67.7978H81.483C81.4494 67.7978 81.4275 67.7762 81.4181 67.7332L81.3966 67.6251C81.3531 67.4427 81.2478 67.2878 81.0795 67.16C80.9117 67.0334 80.7076 66.9699 80.4678 66.9699C80.2278 66.9699 80.0271 67.0334 79.8657 67.16C79.7054 67.2878 79.6012 67.4572 79.5531 67.6682C79.51 67.8507 79.4885 68.0932 79.4885 68.3954C79.4885 68.7125 79.51 68.9571 79.5531 69.13C79.6012 69.3458 79.7054 69.5173 79.8657 69.6439C80.0271 69.7717 80.2278 69.8354 80.4678 69.8354C80.703 69.8354 80.9055 69.7741 81.0755 69.6513C81.2463 69.5294 81.3531 69.3724 81.3966 69.1802V69.1516L81.4036 69.1226C81.4084 69.0749 81.4373 69.0557 81.4901 69.0651L81.8428 69.1226C81.8909 69.1324 81.9125 69.1587 81.9077 69.2021L81.8788 69.3458C81.8068 69.6244 81.6412 69.8499 81.3821 70.0229C81.123 70.1955 80.818 70.282 80.4678 70.282ZM84.0965 66.5234C84.5286 66.5234 84.8621 66.6338 85.0973 66.8548C85.3325 67.0756 85.4503 67.3684 85.4503 67.7332V70.1524C85.4503 70.2002 85.4261 70.2245 85.3783 70.2245H85.0108C84.963 70.2245 84.9388 70.2002 84.9388 70.1524V69.8573C84.9388 69.8475 84.935 69.8404 84.9273 69.8354C84.9208 69.8308 84.9125 69.8331 84.9028 69.8428C84.783 69.9868 84.6268 70.0957 84.435 70.1695C84.2428 70.2445 84.0292 70.282 83.7942 70.282C83.4533 70.282 83.1677 70.1955 82.9371 70.0229C82.7069 69.8499 82.5916 69.586 82.5916 69.2307C82.5916 68.8707 82.7223 68.5861 82.9835 68.3768C83.2456 68.1685 83.6092 68.0643 84.0749 68.0643H84.9101C84.9293 68.0643 84.9388 68.0549 84.9388 68.0354V67.7618C84.9388 67.5171 84.8703 67.3238 84.7331 67.1815C84.5967 67.0405 84.3845 66.9699 84.0965 66.9699C83.866 66.9699 83.6789 67.0142 83.5348 67.1024C83.3908 67.1916 83.3019 67.3156 83.2686 67.474C83.2542 67.5218 83.2252 67.5434 83.1821 67.5387L82.7934 67.4882C82.7406 67.4788 82.7188 67.4596 82.7285 67.4307C82.7668 67.1618 82.9109 66.9434 83.1606 66.7754C83.41 66.6075 83.7222 66.5234 84.0965 66.5234ZM83.8949 69.8428C84.1782 69.8428 84.4229 69.7717 84.6292 69.6297C84.8358 69.4886 84.9388 69.298 84.9388 69.058V68.4964C84.9388 68.4772 84.9293 68.4675 84.9101 68.4675H84.154C83.8373 68.4675 83.5829 68.5324 83.3908 68.662C83.1989 68.7916 83.1031 68.9715 83.1031 69.2021C83.1031 69.4131 83.1759 69.5725 83.3217 69.6799C83.4687 69.7885 83.6597 69.8428 83.8949 69.8428ZM89.344 67.4882C89.416 67.7187 89.4521 68.0236 89.4521 68.4028C89.4521 68.7868 89.4208 69.0843 89.3585 69.2957C89.272 69.6029 89.115 69.8437 88.8875 70.0184C88.659 70.194 88.3719 70.282 88.0263 70.282C87.8391 70.282 87.6665 70.2445 87.5079 70.1695C87.3495 70.0957 87.2176 69.9892 87.1119 69.8499C87.1024 69.8404 87.0942 69.8366 87.0874 69.8384C87.0797 69.8413 87.0759 69.8475 87.0759 69.8573V71.5493C87.0759 71.5971 87.052 71.6213 87.0038 71.6213H86.6367C86.5886 71.6213 86.5647 71.5971 86.5647 71.5493V66.653C86.5647 66.6051 86.5886 66.5813 86.6367 66.5813H87.0038C87.052 66.5813 87.0759 66.6051 87.0759 66.653V66.9555C87.0759 66.9652 87.0797 66.9708 87.0874 66.9729C87.0942 66.9756 87.1024 66.9723 87.1119 66.9626C87.2176 66.8236 87.3486 66.7155 87.505 66.6388C87.6606 66.5618 87.8344 66.5234 88.0263 66.5234C88.3624 66.5234 88.6445 66.6099 88.873 66.7828C89.1005 66.9555 89.2576 67.1907 89.344 67.4882ZM88.775 69.3098C88.8278 69.2045 88.8677 69.0852 88.8946 68.9526C88.9205 68.8213 88.9335 68.638 88.9335 68.4028C88.9335 68.1771 88.9241 68.0009 88.9049 67.8742C88.8857 67.7465 88.852 67.6322 88.804 67.5316C88.7464 67.3586 88.6445 67.222 88.4988 67.121C88.3518 67.0204 88.1777 66.9699 87.9761 66.9699C87.784 66.9699 87.6231 67.0204 87.4935 67.121C87.364 67.222 87.2681 67.3563 87.2054 67.5242C87.1624 67.6204 87.1311 67.7332 87.1119 67.8628C87.0927 67.9923 87.083 68.1723 87.083 68.4028C87.083 68.633 87.0927 68.814 87.1119 68.9456C87.1311 69.0781 87.1647 69.1947 87.2128 69.2957C87.2704 69.4589 87.3655 69.5893 87.4979 69.6873C87.6293 69.7862 87.7863 69.8354 87.9687 69.8354C88.1608 69.8354 88.3279 69.7876 88.4699 69.6914C88.6109 69.5955 88.7128 69.4683 88.775 69.3098ZM90.8345 65.9186C90.7191 65.9186 90.6232 65.8803 90.5464 65.8036C90.4697 65.7268 90.4311 65.6306 90.4311 65.5155C90.4311 65.3953 90.4697 65.2979 90.5464 65.223C90.6232 65.1493 90.7191 65.1123 90.8345 65.1123C90.9496 65.1123 91.0455 65.1493 91.1222 65.223C91.1993 65.2979 91.2377 65.3953 91.2377 65.5155C91.2377 65.6306 91.1993 65.7268 91.1222 65.8036C91.0455 65.8803 90.9496 65.9186 90.8345 65.9186ZM90.6329 70.2171C90.5848 70.2171 90.5609 70.1931 90.5609 70.1451V66.6459C90.5609 66.5978 90.5848 66.5739 90.6329 66.5739H91.0001C91.0479 66.5739 91.0721 66.5978 91.0721 66.6459V70.1451C91.0721 70.1931 91.0479 70.2171 91.0001 70.2171H90.6329ZM93.9591 66.934C93.9591 66.982 93.9352 67.006 93.8871 67.006H93.0737C93.0545 67.006 93.0448 67.0154 93.0448 67.0346V69.1587C93.0448 69.3892 93.0961 69.5509 93.1989 69.6439C93.3028 69.738 93.4648 69.7853 93.6855 69.7853H93.8656C93.9137 69.7853 93.9376 69.8091 93.9376 69.8573V70.1524C93.9376 70.2002 93.9137 70.2245 93.8656 70.2245C93.808 70.2292 93.7191 70.2315 93.5993 70.2315C93.2537 70.2315 92.9919 70.1669 92.8143 70.037C92.6369 69.9074 92.548 69.6675 92.548 69.3172V67.0346C92.548 67.0154 92.5383 67.006 92.5192 67.006H92.08C92.0318 67.006 92.008 66.982 92.008 66.934V66.653C92.008 66.6051 92.0318 66.5813 92.08 66.5813H92.5192C92.5383 66.5813 92.548 66.5715 92.548 66.5523V65.7171C92.548 65.669 92.572 65.645 92.62 65.645H92.9727C93.0209 65.645 93.0448 65.669 93.0448 65.7171V66.5523C93.0448 66.5715 93.0545 66.5813 93.0737 66.5813H93.8871C93.9352 66.5813 93.9591 66.6051 93.9591 66.653V66.934ZM96.2057 66.5234C96.6378 66.5234 96.9713 66.6338 97.2066 66.8548C97.4409 67.0756 97.5577 67.3684 97.5577 67.7332V70.1524C97.5577 70.2002 97.5339 70.2245 97.4857 70.2245H97.12C97.0719 70.2245 97.048 70.2002 97.048 70.1524V69.8573C97.048 69.8475 97.0442 69.8404 97.0366 69.8354C97.0298 69.8308 97.0218 69.8331 97.012 69.8428C96.8922 69.9868 96.7361 70.0957 96.5439 70.1695C96.3521 70.2445 96.1381 70.282 95.9017 70.282C95.562 70.282 95.2769 70.1955 95.0464 70.0229C94.815 69.8499 94.6993 69.586 94.6993 69.2307C94.6993 68.8707 94.8303 68.5861 95.0924 68.3768C95.3545 68.1685 95.7184 68.0643 96.1841 68.0643H97.0179C97.038 68.0643 97.048 68.0549 97.048 68.0354V67.7618C97.048 67.5171 96.9796 67.3238 96.842 67.1815C96.706 67.0405 96.4938 66.9699 96.2057 66.9699C95.9752 66.9699 95.7881 67.0142 95.6441 67.1024C95.5001 67.1916 95.4112 67.3156 95.3776 67.474C95.3634 67.5218 95.3338 67.5434 95.2899 67.5387L94.9023 67.4882C94.8487 67.4788 94.8271 67.4596 94.8377 67.4307C94.8752 67.1618 95.0189 66.9434 95.2695 66.7754C95.5193 66.6075 95.8312 66.5234 96.2057 66.5234ZM96.0042 69.8428C96.2863 69.8428 96.5312 69.7717 96.7384 69.6297C96.9448 69.4886 97.048 69.298 97.048 69.058V68.4964C97.048 68.4772 97.038 68.4675 97.0179 68.4675H96.2618C95.946 68.4675 95.6922 68.5324 95.5001 68.662C95.3082 68.7916 95.212 68.9715 95.212 69.2021C95.212 69.4131 95.2849 69.5725 95.431 69.6799C95.5768 69.7885 95.7681 69.8428 96.0042 69.8428ZM98.6955 70.2245C98.6474 70.2245 98.6235 70.2002 98.6235 70.1524V65.2564C98.6235 65.2083 98.6474 65.1843 98.6955 65.1843H99.0627C99.1108 65.1843 99.1347 65.2083 99.1347 65.2564V70.1524C99.1347 70.2002 99.1108 70.2245 99.0627 70.2245H98.6955Z" fill="white"/>
</g>
<mask id="mask2_159_9323" style="mask-type:luminance" maskUnits="userSpaceOnUse" x="30" y="27" width="15" height="16">
<path d="M30.4121 27.8799H44.5779V42.0589H30.4121V27.8799Z" fill="white"/>
</mask>
<g mask="url(#mask2_159_9323)">
<path d="M30.4121 27.9014H44.5696V42.0589H30.4121V27.9014Z" fill="#0000BF"/>
</g>
<path d="M55.6355 20.5273L44.7818 27.3114H31.1426L41.998 20.5273H55.6355Z" fill="#0000BF"/>
<path d="M68.1644 27.4421L45.1592 41.8227V27.7709L68.1644 13.3896V27.4421Z" fill="#0000BF"/>
<path d="M68.5381 27.9014H82.1818L71.3263 34.6851H57.6885L68.5381 27.9014Z" fill="#0000BF"/>
<mask id="mask3_159_9323" style="mask-type:luminance" maskUnits="userSpaceOnUse" x="68" y="13" width="15" height="15">
<path d="M68.6797 13.1533H82.9134V27.3507H68.6797V13.1533Z" fill="white"/>
</mask>
<g mask="url(#mask3_159_9323)">
<path d="M68.7549 13.1533H82.9133V27.3111H68.7549V13.1533Z" fill="#0000BF"/>
</g>
</g>
<defs>
<clipPath id="clip0_159_9323">
<rect width="113.333" height="85" fill="white"/>
</clipPath>
</defs>
</svg>
