<svg width="442" height="434" viewBox="0 0 442 434" fill="none" xmlns="http://www.w3.org/2000/svg">
<path d="M376.369 433.13C376.369 433.275 304.601 433.399 216.1 433.399C127.599 433.399 55.7998 433.275 55.7998 433.13C55.7998 432.985 127.558 432.861 216.1 432.861C304.642 432.861 376.369 432.996 376.369 433.13Z" fill="#263238"/>
<path d="M306.441 306.606C290.473 295.454 286.856 274.753 287.486 256.139C287.589 253.038 287.248 249.752 288.726 247.034C290.204 244.315 293.656 242.445 296.436 243.747C298.741 244.832 299.744 247.519 301.036 249.741C302.759 252.701 305.286 255.113 308.322 256.697C310.296 257.731 312.746 258.351 314.699 257.276C317.386 255.798 317.696 252.108 317.675 249.008C317.675 243.241 317.641 237.48 317.572 231.727C317.386 228.638 317.7 225.539 318.502 222.549C319.463 219.614 321.603 216.896 324.528 216.069C327.453 215.242 331.101 216.948 331.762 219.966C331.876 221.244 331.907 222.528 331.855 223.81C331.938 225.102 332.538 226.518 333.747 226.911C334.956 227.304 336.217 226.404 337.147 225.495C340.33 222.394 342.501 218.353 344.516 214.364C346.531 210.374 348.506 206.271 351.399 202.871C354.293 199.471 358.293 196.773 362.768 196.515C367.243 196.256 371.905 199.006 373.021 203.346C374.137 207.687 371.605 212.121 368.887 215.645C364.785 220.877 359.95 225.489 354.531 229.34C353.473 229.917 352.629 230.819 352.123 231.913C351.451 233.98 353.404 236.047 355.44 236.698C357.745 237.463 360.246 237.225 362.675 237.515C365.104 237.804 367.688 238.858 368.608 241.132C369.868 244.295 367.223 247.602 364.629 249.772C359.42 254.113 353.505 257.529 347.141 259.87C344.868 260.697 342.48 261.431 340.64 263.022C338.801 264.614 337.705 267.394 338.811 269.575C339.917 271.756 342.759 272.448 345.147 272.004C347.534 271.559 349.653 270.278 351.926 269.42C356.174 267.818 361.652 268.107 364.329 271.776C365.158 273.04 365.683 274.479 365.862 275.98C366.042 277.481 365.871 279.003 365.362 280.427C364.328 283.26 362.736 285.857 360.68 288.065C353.911 296.152 345.116 302.298 335.194 305.872C325.344 309.283 316.218 310.213 306.431 306.627" fill="#0000BF"/>
<path d="M368.473 199.067C368.473 199.067 368.38 199.171 368.173 199.357L367.253 200.173C366.447 200.897 365.259 201.951 363.76 203.346C359.511 207.291 355.566 211.551 351.957 216.09C349.652 218.952 347.265 222.198 344.722 225.722C342.18 229.246 339.555 233.05 336.95 237.091C334.174 241.352 331.631 245.762 329.333 250.299C328.134 252.666 327.08 255.136 325.995 257.658L322.791 265.358C318.568 275.056 314.89 284.983 311.774 295.092C309.264 303.363 307.534 311.851 306.606 320.445C306.005 326.244 305.908 332.085 306.317 337.901C306.482 339.968 306.637 341.549 306.782 342.624C306.844 343.141 306.885 343.554 306.926 343.854V344.278C306.882 344.143 306.851 344.005 306.833 343.864C306.782 343.565 306.72 343.162 306.637 342.645C306.451 341.611 306.255 339.978 306.069 337.911C305.57 332.084 305.604 326.224 306.172 320.403C307.042 311.773 308.734 303.246 311.226 294.937C314.316 284.8 317.984 274.848 322.212 265.13L325.499 257.462C326.584 254.95 327.649 252.459 328.858 250.082C331.171 245.531 333.735 241.111 336.537 236.843C339.183 232.709 341.849 228.967 344.361 225.474C346.872 221.981 349.301 218.715 351.595 215.862C355.24 211.336 359.239 207.106 363.553 203.212C365.083 201.837 366.302 200.804 367.129 200.111L368.09 199.336C368.208 199.234 368.336 199.143 368.473 199.067Z" fill="#263238"/>
<path d="M328.992 250.062C328.847 249.636 328.746 249.196 328.693 248.749C328.527 247.892 328.341 246.682 328.124 245.111C327.68 242.011 327.225 237.763 326.739 233.06C326.254 228.358 325.706 224.1 325.251 221.03C325.013 219.501 324.807 218.271 324.662 217.413C324.549 216.974 324.49 216.523 324.486 216.069C324.664 216.483 324.793 216.917 324.869 217.361C325.096 218.209 325.354 219.428 325.644 220.968C326.233 224.069 326.812 228.286 327.297 232.998C327.783 237.711 328.197 241.845 328.517 245.06C328.672 246.507 328.806 247.737 328.91 248.718C328.99 249.161 329.018 249.612 328.992 250.062Z" fill="#263238"/>
<path d="M368.763 242.641C368.26 242.751 367.748 242.813 367.233 242.827C366.2 242.92 364.732 243.044 362.913 243.251C359.275 243.644 354.273 244.367 348.785 245.401C343.297 246.434 338.367 247.602 334.822 248.501C333.055 248.956 331.628 249.37 330.688 249.649C330.186 249.827 329.666 249.952 329.138 250.021C329.615 249.78 330.113 249.583 330.626 249.432C331.597 249.091 333.003 248.615 334.76 248.109C338.284 247.075 343.214 245.845 348.723 244.791C353.389 243.899 358.098 243.243 362.831 242.827C364.66 242.672 366.138 242.61 367.171 242.59C367.702 242.553 368.236 242.571 368.763 242.641Z" fill="#263238"/>
<path d="M311.733 294.214C311.623 294.064 311.533 293.901 311.464 293.728L310.782 292.292C310.193 291.041 309.397 289.191 308.446 286.928C306.524 282.38 304.075 276.014 301.47 268.944C298.866 261.875 296.468 255.508 294.649 250.909C293.76 248.677 293.026 246.847 292.479 245.483L291.9 244.005C291.819 243.835 291.764 243.654 291.734 243.468C291.845 243.617 291.935 243.781 292.003 243.954L292.685 245.39C293.264 246.641 294.07 248.491 295.021 250.754C296.943 255.302 299.393 261.668 301.997 268.738C304.602 275.807 307 282.173 308.819 286.773C309.707 289.005 310.441 290.834 310.979 292.199C311.216 292.788 311.413 293.232 311.568 293.677C311.648 293.847 311.704 294.028 311.733 294.214Z" fill="#263238"/>
<path d="M364.526 277.191C364.36 277.286 364.183 277.359 363.998 277.408L362.469 277.925L356.815 279.755C352.041 281.305 345.447 283.517 338.212 285.956C330.977 288.395 324.352 290.565 319.546 292.012C317.149 292.746 315.195 293.304 313.841 293.676L312.281 294.079C312.099 294.137 311.912 294.175 311.723 294.193C311.888 294.098 312.065 294.025 312.25 293.976L313.779 293.459L319.433 291.63C324.208 290.079 330.802 287.868 338.036 285.429C345.271 282.989 351.885 280.819 356.691 279.372C359.099 278.638 361.043 278.08 362.407 277.708L363.967 277.305C364.149 277.247 364.336 277.209 364.526 277.191Z" fill="#263238"/>
<path d="M342.986 26.4894L337.663 28.3911L335.379 21.4355C331.183 8.60942 317.809 1.79848 305.521 6.12896C293.232 10.4594 286.69 24.5257 290.886 37.3518L293.17 44.3074L287.827 46.2194C285.789 47.0097 284.135 48.5548 283.207 50.5335C282.279 52.5122 282.15 54.7724 282.845 56.8441L297.656 102.102C297.963 103.128 298.473 104.081 299.157 104.906C299.84 105.73 300.682 106.409 301.632 106.901C302.583 107.394 303.623 107.691 304.69 107.773C305.758 107.856 306.831 107.724 307.846 107.384L363.005 87.6535C365.07 86.8646 366.748 85.3058 367.687 83.3051C368.625 81.3043 368.752 79.0174 368.039 76.9255L353.218 31.6674C352.903 30.6447 352.384 29.696 351.694 28.8779C351.004 28.0598 350.156 27.3892 349.201 26.9059C348.246 26.4226 347.204 26.1367 346.136 26.0651C345.068 25.9936 343.997 26.1379 342.986 26.4894ZM300.942 33.7241C299.811 30.3891 300.014 26.7457 301.509 23.5572C303.004 20.3686 305.675 17.8823 308.962 16.6193C310.586 16.0639 312.304 15.8412 314.015 15.9644C315.727 16.0876 317.395 16.5543 318.922 17.3366C320.449 18.1189 321.803 19.2007 322.903 20.5175C324.002 21.8344 324.826 23.3592 325.323 25.0012L327.597 31.9568L303.216 40.6798L300.942 33.7241ZM331.948 73.8869L335.731 85.4418C335.8 85.6735 335.778 85.923 335.668 86.1386C335.558 86.3541 335.37 86.5191 335.142 86.5993L329.84 88.4907C329.629 88.5492 329.403 88.5238 329.21 88.4197C329.018 88.3157 328.873 88.1411 328.806 87.9326L324.992 76.4294C322.889 76.3148 320.872 75.5606 319.209 74.2676C317.547 72.9747 316.319 71.2047 315.691 69.1947C314.792 66.5375 314.956 63.6355 316.148 61.0964C317.341 58.5573 319.469 56.578 322.088 55.5729C323.381 55.1311 324.75 54.9541 326.113 55.0526C327.476 55.151 328.805 55.5228 330.021 56.1458C331.237 56.7689 332.316 57.6304 333.192 58.679C334.068 59.7276 334.724 60.9419 335.121 62.2494C335.786 64.2912 335.841 66.4826 335.279 68.5552C334.717 70.6277 333.563 72.4914 331.958 73.918L331.948 73.8869Z" fill="#0000BF"/>
<path d="M337.426 28.2673C337.426 28.412 327.556 32.1224 315.278 36.5356C302.999 40.9487 292.984 44.4937 292.933 44.3904C292.881 44.287 302.803 40.5456 315.092 36.1221C327.38 31.6987 337.374 28.133 337.426 28.2673Z" fill="#263238"/>
<path d="M349.146 30.1689C349.192 30.2586 349.23 30.352 349.26 30.448C349.342 30.6547 349.435 30.9234 349.559 31.2541C349.828 32.0086 350.2 33.0525 350.665 34.3547L354.634 45.9096C356.288 50.8085 358.262 56.6169 360.453 63.0661C361.486 66.301 362.706 69.6703 363.843 73.2153C364.451 75.0421 364.714 76.9663 364.618 78.8894C364.53 79.8895 364.246 80.8625 363.781 81.7523C363.284 82.6391 362.621 83.4216 361.827 84.057C360.231 85.2226 358.458 86.1262 356.577 86.7338L351.254 88.6459L341.178 92.2529L324.114 98.33L312.59 102.381L309.49 103.415L308.663 103.684C308.574 103.723 308.48 103.747 308.384 103.756C308.384 103.756 308.466 103.756 308.642 103.632L309.448 103.312L312.549 102.144L324.011 97.9269L341.043 91.7258L351.099 88.0878L356.422 86.1654C358.25 85.5825 359.971 84.7063 361.517 83.5713C362.256 82.9817 362.873 82.2553 363.336 81.4319C363.774 80.6089 364.038 79.7048 364.112 78.7757C364.207 76.9228 363.954 75.0684 363.367 73.3083C362.251 69.7943 361.073 66.394 360.008 63.1591C357.859 56.6996 355.874 50.8705 354.303 45.9716C352.732 41.0726 351.409 37.1349 350.5 34.3651C350.066 33.0111 349.735 31.9569 349.466 31.1921L349.218 30.3653C349.187 30.3027 349.163 30.2368 349.146 30.1689Z" fill="#263238"/>
<path d="M320.042 15.9162C320.042 15.9162 319.494 15.6475 318.481 15.234C317.038 14.6793 315.511 14.3719 313.965 14.3245C311.674 14.246 309.393 14.6766 307.288 15.5854C304.729 16.7171 302.54 18.5476 300.974 20.8668C299.397 23.1793 298.55 25.9122 298.545 28.7112C298.566 31.0054 298.914 33.2848 299.578 35.4808C300.116 37.3618 300.674 38.8605 301.046 39.9043C301.265 40.4345 301.445 40.9804 301.583 41.5373C301.29 41.0416 301.044 40.519 300.849 39.9767C300.426 38.9431 299.816 37.4755 299.217 35.5842C298.481 33.3651 298.08 31.0486 298.028 28.7112C298 25.8064 298.866 22.9633 300.508 20.567C302.13 18.1632 304.408 16.2761 307.071 15.1307C309.242 14.2169 311.593 13.8138 313.944 13.9525C315.524 14.033 317.075 14.4007 318.523 15.0377C318.91 15.2162 319.283 15.4235 319.639 15.6578C319.786 15.7224 319.922 15.8096 320.042 15.9162Z" fill="#263238"/>
<path d="M320.517 56.3581C320.682 56.2582 320.855 56.1718 321.034 56.0997C321.551 55.8663 322.087 55.6762 322.636 55.5313C323.507 55.2742 324.405 55.1215 325.312 55.0766C326.546 55.0102 327.781 55.1966 328.94 55.6243C331.586 56.5545 334.015 59.252 335.214 62.859C335.789 64.7947 335.789 66.8558 335.214 68.7915C334.576 70.8924 333.433 72.8051 331.886 74.3622L331.948 74.0831C333.322 77.8555 334.821 81.9482 336.371 86.2167L336.464 86.4751L336.206 86.5681L333.839 87.3536L328.671 89.0796L328.413 89.1623L328.33 88.9039C326.914 84.6251 325.364 80.6357 324.196 76.7186L324.424 76.8943C322.403 76.7265 320.477 75.9681 318.884 74.7136C317.443 73.6037 316.261 72.1929 315.422 70.5795C314.664 69.1487 314.287 67.5471 314.326 65.9286C314.374 64.2744 314.787 62.6512 315.536 61.1753C316.284 59.6994 317.35 58.4074 318.657 57.3917C319.194 56.9551 319.798 56.6063 320.445 56.3581C319.861 56.7045 319.295 57.0805 318.75 57.4847C317.314 58.6989 316.215 60.2611 315.556 62.0219C314.991 63.3496 314.726 64.786 314.781 66.228C314.837 67.6701 315.211 69.082 315.876 70.3624C316.702 71.9145 317.855 73.2687 319.256 74.3312C320.775 75.5236 322.612 76.2425 324.537 76.3982H324.713L324.765 76.5532C325.902 80.398 327.462 84.4184 328.899 88.7178L328.558 88.5525L333.725 86.8265L336.082 86.0307L335.916 86.3821C334.376 82.1136 332.888 78.0105 331.524 74.2381V74.0831L331.648 73.9591C333.15 72.4665 334.271 70.6336 334.914 68.6158C335.462 66.7641 335.462 64.7933 334.914 62.9417C333.787 59.469 331.462 56.8336 328.94 55.9034C327.824 55.4729 326.632 55.2726 325.436 55.3143C324.544 55.3347 323.656 55.4561 322.791 55.676C321.251 56.0584 320.527 56.4098 320.517 56.3581Z" fill="#263238"/>
<path d="M288.571 354.779L185.332 354.303C179.37 354.27 173.665 351.873 169.47 347.637C165.274 343.4 162.932 337.672 162.956 331.71L164.052 72.905C164.064 69.9513 164.658 67.0289 165.8 64.3049C166.943 61.5809 168.611 59.1087 170.709 57.0297C172.807 54.9507 175.294 53.3055 178.029 52.1884C180.763 51.0712 183.691 50.5039 186.645 50.5188L289.873 50.9943C295.835 51.0243 301.542 53.4195 305.739 57.6537C309.936 61.8878 312.281 67.6148 312.259 73.5768L311.164 332.372C311.152 335.327 310.558 338.25 309.416 340.975C308.274 343.7 306.606 346.174 304.508 348.254C302.41 350.335 299.923 351.982 297.189 353.102C294.454 354.221 291.526 354.791 288.571 354.779Z" fill="#455A64"/>
<path d="M289.718 59.8927H269.709C269.056 59.9048 268.412 60.0454 267.814 60.3065C267.215 60.5675 266.674 60.944 266.221 61.4143C265.768 61.8845 265.412 62.4395 265.174 63.0473C264.935 63.6552 264.819 64.3041 264.831 64.957V68.5847C264.843 69.237 264.727 69.8854 264.488 70.4927C264.25 71.1 263.894 71.6542 263.44 72.1237C262.987 72.5931 262.446 72.9686 261.847 73.2285C261.249 73.4885 260.605 73.6278 259.953 73.6386L220.947 73.4629C219.628 73.4277 218.376 72.8703 217.468 71.913C216.559 70.9557 216.067 69.6768 216.1 68.3573V64.7296C216.134 63.4118 215.643 62.1344 214.737 61.1774C213.83 60.2205 212.581 59.6618 211.263 59.624H204.225L186.707 59.5413C182.54 59.5165 178.533 61.1438 175.564 64.0668C172.594 66.9899 170.904 70.9706 170.863 75.1372L169.829 327.752C169.82 329.819 170.217 331.868 171 333.781C171.782 335.694 172.933 337.435 174.388 338.903C175.843 340.372 177.573 341.539 179.479 342.339C181.385 343.139 183.43 343.555 185.498 343.565L288.519 344.04C290.588 344.05 292.638 343.652 294.553 342.869C296.467 342.086 298.209 340.934 299.678 339.478C301.148 338.022 302.316 336.291 303.116 334.384C303.916 332.476 304.333 330.43 304.343 328.362L305.376 75.747C305.401 71.5686 303.766 67.5514 300.829 64.5784C297.893 61.6054 293.897 59.92 289.718 59.8927Z" fill="white"/>
<path d="M275.859 310.337L199.254 310.006C198.458 310.006 197.817 309.138 197.827 308.084L197.91 288.043C197.91 287.01 198.561 286.121 199.357 286.121L275.962 286.472C276.403 286.549 276.797 286.792 277.063 287.152C277.329 287.513 277.445 287.961 277.388 288.405L277.316 308.425C277.316 309.489 276.654 310.347 275.859 310.337Z" fill="#0000BF"/>
<path d="M222.544 300.125C222.121 300.125 221.715 300.057 221.324 299.922C220.94 299.781 220.641 299.602 220.43 299.385L220.666 298.922C220.866 299.117 221.135 299.282 221.471 299.418C221.812 299.548 222.17 299.613 222.544 299.613C222.902 299.613 223.192 299.569 223.414 299.483C223.642 299.39 223.807 299.268 223.91 299.117C224.019 298.965 224.073 298.797 224.073 298.613C224.073 298.39 224.008 298.211 223.878 298.076C223.753 297.94 223.588 297.835 223.382 297.759C223.176 297.677 222.948 297.607 222.699 297.547C222.449 297.488 222.2 297.425 221.951 297.36C221.701 297.29 221.471 297.198 221.259 297.084C221.053 296.97 220.885 296.821 220.755 296.637C220.631 296.447 220.568 296.2 220.568 295.897C220.568 295.615 220.641 295.357 220.788 295.124C220.94 294.886 221.17 294.696 221.479 294.555C221.788 294.409 222.184 294.335 222.666 294.335C222.986 294.335 223.303 294.382 223.617 294.474C223.932 294.56 224.203 294.682 224.431 294.84L224.227 295.319C223.983 295.157 223.723 295.037 223.447 294.962C223.176 294.886 222.913 294.848 222.658 294.848C222.316 294.848 222.035 294.894 221.812 294.986C221.59 295.078 221.425 295.203 221.316 295.36C221.213 295.512 221.162 295.685 221.162 295.88C221.162 296.103 221.224 296.282 221.349 296.417C221.479 296.553 221.647 296.658 221.853 296.734C222.064 296.81 222.295 296.878 222.544 296.937C222.794 296.997 223.04 297.062 223.284 297.133C223.533 297.203 223.761 297.295 223.967 297.409C224.179 297.518 224.347 297.664 224.471 297.848C224.601 298.033 224.666 298.274 224.666 298.572C224.666 298.848 224.591 299.106 224.439 299.344C224.287 299.577 224.054 299.767 223.739 299.914C223.43 300.054 223.032 300.125 222.544 300.125ZM225.977 300.076V294.384H226.579V300.076H225.977ZM228.431 300.076V294.384H228.927L232.855 299.328H232.594V294.384H233.188V300.076H232.692L228.773 295.132H229.033V300.076H228.431ZM237.542 300.125C237.108 300.125 236.707 300.054 236.339 299.914C235.975 299.767 235.658 299.564 235.387 299.304C235.122 299.043 234.913 298.737 234.761 298.385C234.615 298.033 234.542 297.648 234.542 297.23C234.542 296.813 234.615 296.428 234.761 296.076C234.913 295.723 235.124 295.417 235.395 295.157C235.666 294.897 235.984 294.696 236.347 294.555C236.715 294.409 237.117 294.335 237.55 294.335C237.984 294.335 238.38 294.403 238.737 294.539C239.101 294.674 239.41 294.88 239.664 295.157L239.29 295.539C239.052 295.3 238.789 295.13 238.502 295.027C238.214 294.924 237.905 294.872 237.575 294.872C237.222 294.872 236.897 294.932 236.599 295.051C236.306 295.165 236.049 295.33 235.826 295.547C235.61 295.758 235.439 296.008 235.314 296.295C235.195 296.577 235.135 296.889 235.135 297.23C235.135 297.566 235.195 297.878 235.314 298.165C235.439 298.453 235.61 298.705 235.826 298.922C236.049 299.133 236.306 299.298 236.599 299.418C236.897 299.531 237.22 299.588 237.566 299.588C237.892 299.588 238.198 299.54 238.485 299.442C238.778 299.344 239.046 299.179 239.29 298.946L239.632 299.401C239.361 299.64 239.044 299.821 238.68 299.946C238.317 300.065 237.938 300.125 237.542 300.125ZM239.054 299.328V297.23H239.632V299.401L239.054 299.328ZM245.756 300.125C245.03 300.125 244.458 299.916 244.04 299.499C243.623 299.081 243.414 298.463 243.414 297.645V294.384H244.016V297.621C244.016 298.293 244.168 298.789 244.471 299.109C244.775 299.428 245.203 299.588 245.756 299.588C246.314 299.588 246.745 299.428 247.049 299.109C247.352 298.789 247.504 298.293 247.504 297.621V294.384H248.09V297.645C248.09 298.463 247.881 299.081 247.464 299.499C247.052 299.916 246.482 300.125 245.756 300.125ZM249.903 300.076V294.384H252.033C252.516 294.384 252.93 294.463 253.277 294.62C253.624 294.772 253.89 294.994 254.074 295.287C254.264 295.574 254.359 295.924 254.359 296.336C254.359 296.737 254.264 297.084 254.074 297.377C253.89 297.664 253.624 297.886 253.277 298.043C252.93 298.201 252.516 298.279 252.033 298.279H250.236L250.505 297.995V300.076H249.903ZM250.505 298.043L250.236 297.751H252.017C252.586 297.751 253.017 297.629 253.31 297.385C253.608 297.135 253.757 296.786 253.757 296.336C253.757 295.88 253.608 295.528 253.31 295.279C253.017 295.029 252.586 294.905 252.017 294.905H250.236L250.505 294.62V298.043Z" fill="#E8E8E3"/>
<path d="M214.533 134.152L187.951 134.031L187.929 138.909L214.511 139.03L214.533 134.152Z" fill="#0000BF"/>
<path opacity="0.1" d="M214.533 134.152L187.951 134.031L187.929 138.909L214.511 139.03L214.533 134.152Z" fill="black"/>
<path d="M292.457 164.103C292.666 164.082 292.871 164.034 293.067 163.959C293.353 163.847 293.601 163.657 293.784 163.41C293.967 163.163 294.077 162.87 294.1 162.563C294.1 160.92 294.1 158.522 294.1 155.443C294.1 153.903 294.1 152.177 294.1 150.275C294.1 149.81 294.1 149.324 294.1 148.838C294.168 148.367 294.065 147.887 293.811 147.484C293.669 147.291 293.483 147.134 293.27 147.024C293.057 146.915 292.821 146.857 292.581 146.854H290.969H276.034L189.59 146.534C189.369 146.53 189.15 146.579 188.952 146.678C188.754 146.777 188.583 146.923 188.453 147.102C188.204 147.506 188.108 147.987 188.184 148.456C188.184 149.489 188.184 150.523 188.184 151.556C188.184 153.624 188.184 155.691 188.184 157.758C188.184 158.791 188.184 159.825 188.184 160.858C188.142 161.34 188.142 161.824 188.184 162.305C188.239 162.511 188.34 162.703 188.479 162.864C188.619 163.025 188.794 163.152 188.991 163.235C189.194 163.316 189.412 163.355 189.631 163.349H194.892L217.847 163.473L256.707 163.711L282.907 163.917L290.028 164H291.878C292.302 164 292.509 164 292.509 164H291.878H290.028H282.907H256.707L217.847 163.876L194.892 163.783H189.631C189.342 163.795 189.053 163.745 188.784 163.638C188.512 163.522 188.27 163.345 188.076 163.122C187.883 162.898 187.743 162.633 187.668 162.346C187.608 162.075 187.587 161.797 187.606 161.52V160.755C187.606 159.721 187.606 158.688 187.606 157.654C187.606 155.587 187.606 153.52 187.606 151.453C187.606 150.42 187.606 149.386 187.606 148.353C187.586 148.077 187.586 147.801 187.606 147.526C187.644 147.222 187.762 146.933 187.947 146.689C188.125 146.439 188.361 146.236 188.634 146.098C188.908 145.959 189.211 145.889 189.518 145.893L275.962 146.368L290.896 146.471H292.509C292.793 146.472 293.072 146.54 293.324 146.672C293.576 146.803 293.793 146.993 293.955 147.226C294.247 147.675 294.364 148.215 294.286 148.745C294.286 149.231 294.286 149.717 294.286 150.182C294.286 152.063 294.286 153.789 294.286 155.349C294.286 158.45 294.214 160.827 294.193 162.481C294.168 162.799 294.052 163.103 293.86 163.357C293.668 163.612 293.407 163.806 293.108 163.917C292.912 164.039 292.687 164.103 292.457 164.103Z" fill="#E0E0E0"/>
<path d="M244.554 151.722H195.937V156.28H244.554V151.722Z" fill="#0000BF"/>
<path opacity="0.2" d="M244.554 151.722H195.937V156.28H244.554V151.722Z" fill="white"/>
<path d="M214.353 178.655L187.771 178.534L187.748 183.412L214.33 183.533L214.353 178.655Z" fill="#0000BF"/>
<path opacity="0.1" d="M214.353 178.655L187.771 178.534L187.748 183.412L214.33 183.533L214.353 178.655Z" fill="black"/>
<path d="M291.785 208.607C291.994 208.581 292.201 208.543 292.405 208.493C292.694 208.401 292.959 208.249 293.184 208.045C293.409 207.842 293.587 207.593 293.707 207.315C293.87 206.898 293.934 206.448 293.893 206.002C293.893 205.506 293.893 204.969 293.893 204.369C293.893 203.17 293.893 201.806 293.893 200.235V193.672C293.943 193.197 293.838 192.719 293.594 192.308C293.339 191.887 292.938 191.574 292.467 191.43C291.952 191.338 291.428 191.31 290.907 191.347H276.034L189.89 191.027C189.426 191.028 188.979 191.197 188.631 191.503C188.283 191.809 188.058 192.231 187.998 192.691C187.998 193.672 187.998 194.758 187.998 195.791C187.998 197.858 187.998 199.925 187.998 201.992C187.998 203.026 187.998 204.059 187.998 205.093C187.96 205.576 187.981 206.062 188.06 206.54C188.189 206.959 188.455 207.323 188.815 207.573C189.197 207.816 189.645 207.931 190.096 207.904H191.533H194.52L217.392 208.018L256.118 208.255L282.225 208.462L289.325 208.545H282.225H256.118L217.371 208.503L194.499 208.421H190.003C189.444 208.454 188.89 208.305 188.422 207.997C187.952 207.671 187.609 207.193 187.451 206.643C187.358 206.118 187.33 205.583 187.368 205.051C187.368 204.018 187.368 202.984 187.368 201.951C187.368 199.884 187.368 197.817 187.368 195.75C187.368 194.716 187.368 193.683 187.368 192.649C187.443 192.058 187.731 191.515 188.179 191.121C188.626 190.727 189.201 190.51 189.797 190.51L275.941 190.985L290.814 191.099C291.367 191.065 291.923 191.103 292.467 191.213C293.004 191.388 293.457 191.756 293.738 192.246C294.006 192.701 294.122 193.23 294.069 193.755C294.069 194.241 294.069 194.716 294.069 195.192C294.069 197.062 294.069 198.778 294.069 200.359C294.069 201.941 294.069 203.274 294.069 204.493C294.069 205.082 294.069 205.63 294.069 206.137C294.107 206.599 294.032 207.063 293.852 207.491C293.718 207.776 293.524 208.029 293.283 208.232C293.042 208.435 292.76 208.584 292.457 208.669C292.231 208.687 292.004 208.666 291.785 208.607Z" fill="#E0E0E0"/>
<path d="M214.152 225.089L187.57 224.969L187.548 229.847L214.13 229.968L214.152 225.089Z" fill="#0000BF"/>
<path opacity="0.1" d="M214.152 225.089L187.57 224.969L187.548 229.847L214.13 229.968L214.152 225.089Z" fill="black"/>
<path d="M291.579 255.022C291.788 254.998 291.995 254.96 292.199 254.909C292.486 254.817 292.751 254.666 292.975 254.465C293.2 254.263 293.379 254.017 293.501 253.741C293.663 253.323 293.727 252.874 293.687 252.428C293.687 251.922 293.687 251.395 293.687 250.785C293.687 249.596 293.687 248.222 293.687 246.651V240.088C293.736 239.613 293.631 239.134 293.387 238.724C293.126 238.31 292.727 238.003 292.261 237.856C291.747 237.76 291.222 237.729 290.7 237.763H275.828L189.683 237.442C189.22 237.443 188.773 237.613 188.425 237.919C188.077 238.225 187.852 238.647 187.792 239.106C187.792 240.14 187.792 241.173 187.792 242.207C187.792 244.274 187.792 246.341 187.792 248.408C187.792 249.441 187.792 250.475 187.792 251.508C187.754 251.988 187.774 252.471 187.854 252.945C187.978 253.367 188.245 253.732 188.609 253.979C188.988 254.226 189.438 254.342 189.89 254.309H194.386L217.258 254.433L255.984 254.671L282.091 254.878L289.191 254.96H282.091H255.984L217.258 254.847L194.386 254.754H189.89C189.331 254.791 188.774 254.642 188.309 254.33C187.839 254.004 187.495 253.526 187.337 252.976C187.245 252.451 187.217 251.916 187.255 251.384C187.255 250.351 187.255 249.317 187.255 248.284C187.255 246.217 187.255 244.15 187.255 242.083C187.255 241.049 187.255 240.016 187.255 238.93C187.328 238.34 187.614 237.797 188.059 237.403C188.504 237.009 189.078 236.792 189.673 236.791L275.817 237.266L290.69 237.38C291.244 237.346 291.8 237.384 292.344 237.494C292.881 237.669 293.333 238.037 293.615 238.527C293.882 238.983 293.998 239.511 293.946 240.036C293.946 240.522 293.946 241.008 293.946 241.473C293.946 243.344 293.946 245.059 293.946 246.641C293.946 248.222 293.946 249.555 293.946 250.775C293.946 251.364 293.946 251.912 293.946 252.418C293.985 252.88 293.911 253.345 293.728 253.772C293.594 254.057 293.4 254.31 293.159 254.513C292.919 254.717 292.637 254.866 292.333 254.95C292.091 255.033 291.832 255.058 291.579 255.022Z" fill="#E0E0E0"/>
<path d="M243.515 197.514L194.898 197.293L194.878 201.851L243.494 202.071L243.515 197.514Z" fill="#0000BF"/>
<path opacity="0.2" d="M243.515 197.514L194.898 197.293L194.878 201.851L243.494 202.071L243.515 197.514Z" fill="white"/>
<path d="M199.295 246.59C199.265 247.005 199.113 247.403 198.859 247.733C198.604 248.063 198.258 248.312 197.864 248.447C197.47 248.583 197.045 248.6 196.641 248.496C196.237 248.392 195.873 248.171 195.593 247.862C195.314 247.553 195.131 247.169 195.068 246.757C195.004 246.345 195.063 245.923 195.238 245.545C195.412 245.166 195.693 244.847 196.047 244.626C196.401 244.406 196.812 244.294 197.228 244.305C197.804 244.338 198.344 244.595 198.731 245.023C199.118 245.451 199.321 246.013 199.295 246.59Z" fill="#0000BF"/>
<path d="M205.879 246.62C205.899 246.911 205.859 247.204 205.762 247.479C205.664 247.755 205.511 248.007 205.312 248.22C205.113 248.434 204.872 248.604 204.604 248.721C204.336 248.837 204.047 248.897 203.755 248.897C203.463 248.897 203.174 248.837 202.906 248.721C202.638 248.604 202.397 248.434 202.198 248.22C201.999 248.007 201.846 247.755 201.748 247.479C201.651 247.204 201.611 246.911 201.631 246.62C201.611 246.329 201.651 246.036 201.748 245.761C201.846 245.486 201.999 245.233 202.198 245.02C202.397 244.806 202.638 244.636 202.906 244.519C203.174 244.403 203.463 244.343 203.755 244.343C204.047 244.343 204.336 244.403 204.604 244.519C204.872 244.636 205.113 244.806 205.312 245.02C205.511 245.233 205.664 245.486 205.762 245.761C205.859 246.036 205.899 246.329 205.879 246.62Z" fill="#0000BF"/>
<path d="M212.472 246.651C212.442 247.067 212.29 247.464 212.035 247.795C211.781 248.125 211.435 248.373 211.041 248.509C210.647 248.644 210.222 248.661 209.818 248.557C209.414 248.453 209.05 248.233 208.77 247.924C208.49 247.615 208.308 247.23 208.244 246.818C208.181 246.406 208.24 245.985 208.414 245.606C208.588 245.227 208.87 244.908 209.224 244.688C209.578 244.467 209.988 244.356 210.405 244.367C210.98 244.402 211.518 244.66 211.905 245.087C212.291 245.514 212.495 246.076 212.472 246.651Z" fill="#0000BF"/>
<path d="M219.056 246.682C219.026 247.098 218.874 247.496 218.619 247.826C218.365 248.156 218.019 248.404 217.625 248.54C217.231 248.675 216.806 248.692 216.402 248.588C215.998 248.484 215.634 248.264 215.354 247.955C215.074 247.646 214.892 247.262 214.828 246.85C214.765 246.438 214.824 246.016 214.998 245.637C215.172 245.259 215.454 244.939 215.808 244.719C216.162 244.499 216.572 244.387 216.989 244.398C217.564 244.433 218.102 244.691 218.489 245.118C218.875 245.545 219.079 246.107 219.056 246.682Z" fill="#0000BF"/>
<path d="M225.64 246.703C225.611 247.12 225.461 247.518 225.208 247.85C224.955 248.182 224.609 248.432 224.215 248.569C223.821 248.706 223.395 248.724 222.991 248.621C222.586 248.518 222.221 248.299 221.94 247.99C221.66 247.681 221.476 247.297 221.412 246.884C221.348 246.472 221.407 246.05 221.58 245.67C221.754 245.291 222.036 244.971 222.39 244.751C222.744 244.53 223.156 244.418 223.573 244.429C224.146 244.464 224.683 244.721 225.069 245.146C225.455 245.571 225.66 246.13 225.64 246.703Z" fill="#0000BF"/>
<path d="M232.234 246.734C232.205 247.148 232.057 247.545 231.806 247.876C231.555 248.206 231.213 248.457 230.822 248.595C230.43 248.734 230.007 248.756 229.604 248.657C229.201 248.559 228.835 248.344 228.552 248.04C228.269 247.737 228.081 247.357 228.011 246.948C227.941 246.538 227.992 246.118 228.158 245.737C228.324 245.357 228.598 245.033 228.946 244.806C229.293 244.579 229.7 244.459 230.115 244.46C230.697 244.482 231.247 244.733 231.644 245.159C232.041 245.585 232.253 246.152 232.234 246.734Z" fill="#0000BF"/>
<path d="M238.817 246.765C238.838 247.056 238.798 247.348 238.7 247.624C238.603 247.899 238.45 248.151 238.251 248.365C238.051 248.579 237.81 248.749 237.542 248.865C237.275 248.982 236.986 249.042 236.694 249.042C236.401 249.042 236.112 248.982 235.845 248.865C235.577 248.749 235.336 248.579 235.137 248.365C234.937 248.151 234.784 247.899 234.687 247.624C234.589 247.348 234.549 247.056 234.57 246.765C234.549 246.473 234.589 246.181 234.687 245.905C234.784 245.63 234.937 245.378 235.137 245.164C235.336 244.951 235.577 244.78 235.845 244.664C236.112 244.547 236.401 244.487 236.694 244.487C236.986 244.487 237.275 244.547 237.542 244.664C237.81 244.78 238.051 244.951 238.251 245.164C238.45 245.378 238.603 245.63 238.7 245.905C238.798 246.181 238.838 246.473 238.817 246.765Z" fill="#0000BF"/>
<path d="M245.401 246.796C245.372 247.21 245.224 247.607 244.973 247.938C244.722 248.269 244.38 248.519 243.989 248.658C243.597 248.797 243.174 248.818 242.771 248.72C242.368 248.621 242.002 248.407 241.719 248.103C241.436 247.799 241.248 247.419 241.178 247.01C241.108 246.601 241.159 246.18 241.325 245.8C241.491 245.419 241.765 245.096 242.113 244.869C242.46 244.642 242.867 244.521 243.282 244.522C243.864 244.544 244.414 244.795 244.811 245.222C245.208 245.648 245.42 246.214 245.401 246.796Z" fill="#0000BF"/>
<path d="M251.985 246.827C251.956 247.244 251.806 247.642 251.553 247.974C251.299 248.306 250.954 248.556 250.56 248.693C250.166 248.83 249.74 248.848 249.336 248.745C248.931 248.642 248.566 248.423 248.285 248.114C248.004 247.805 247.821 247.421 247.757 247.008C247.693 246.596 247.751 246.174 247.925 245.794C248.099 245.415 248.381 245.095 248.735 244.875C249.089 244.654 249.5 244.542 249.918 244.553C250.491 244.588 251.027 244.845 251.413 245.27C251.8 245.695 252.005 246.254 251.985 246.827Z" fill="#0000BF"/>
<g opacity="0.2">
<path d="M199.295 246.59C199.265 247.005 199.113 247.403 198.859 247.733C198.604 248.063 198.258 248.312 197.864 248.447C197.47 248.583 197.045 248.6 196.641 248.496C196.237 248.392 195.873 248.171 195.593 247.862C195.314 247.553 195.131 247.169 195.068 246.757C195.004 246.345 195.063 245.923 195.238 245.545C195.412 245.166 195.693 244.847 196.047 244.626C196.401 244.406 196.812 244.294 197.228 244.305C197.804 244.338 198.344 244.595 198.731 245.023C199.118 245.451 199.321 246.013 199.295 246.59Z" fill="white"/>
<path d="M205.879 246.62C205.899 246.911 205.859 247.204 205.762 247.479C205.664 247.755 205.511 248.007 205.312 248.22C205.113 248.434 204.872 248.604 204.604 248.721C204.336 248.837 204.047 248.897 203.755 248.897C203.463 248.897 203.174 248.837 202.906 248.721C202.638 248.604 202.397 248.434 202.198 248.22C201.999 248.007 201.846 247.755 201.748 247.479C201.651 247.204 201.611 246.911 201.631 246.62C201.611 246.329 201.651 246.036 201.748 245.761C201.846 245.486 201.999 245.233 202.198 245.02C202.397 244.806 202.638 244.636 202.906 244.519C203.174 244.403 203.463 244.343 203.755 244.343C204.047 244.343 204.336 244.403 204.604 244.519C204.872 244.636 205.113 244.806 205.312 245.02C205.511 245.233 205.664 245.486 205.762 245.761C205.859 246.036 205.899 246.329 205.879 246.62Z" fill="white"/>
<path d="M212.473 246.652C212.443 247.068 212.291 247.465 212.036 247.796C211.782 248.126 211.436 248.374 211.042 248.51C210.648 248.645 210.223 248.662 209.819 248.558C209.415 248.454 209.051 248.234 208.771 247.925C208.491 247.616 208.309 247.231 208.245 246.819C208.182 246.407 208.241 245.986 208.415 245.607C208.589 245.228 208.871 244.909 209.225 244.689C209.579 244.468 209.989 244.357 210.406 244.368C210.981 244.403 211.519 244.661 211.906 245.088C212.292 245.515 212.496 246.077 212.473 246.652Z" fill="white"/>
<path d="M219.056 246.682C219.026 247.098 218.874 247.496 218.619 247.826C218.365 248.156 218.019 248.404 217.625 248.54C217.231 248.675 216.806 248.692 216.402 248.588C215.998 248.484 215.634 248.264 215.354 247.955C215.074 247.646 214.892 247.262 214.828 246.85C214.765 246.438 214.824 246.016 214.998 245.637C215.172 245.259 215.454 244.939 215.808 244.719C216.162 244.499 216.572 244.387 216.989 244.398C217.564 244.433 218.102 244.691 218.489 245.118C218.875 245.545 219.079 246.107 219.056 246.682Z" fill="white"/>
<path d="M225.64 246.703C225.611 247.12 225.461 247.518 225.208 247.85C224.955 248.182 224.609 248.432 224.215 248.569C223.821 248.706 223.395 248.724 222.991 248.621C222.586 248.518 222.221 248.299 221.94 247.99C221.66 247.681 221.476 247.297 221.412 246.884C221.348 246.472 221.407 246.05 221.58 245.67C221.754 245.291 222.036 244.971 222.39 244.751C222.744 244.53 223.156 244.418 223.573 244.429C224.146 244.464 224.683 244.721 225.069 245.146C225.455 245.571 225.66 246.13 225.64 246.703Z" fill="white"/>
<path d="M232.234 246.735C232.205 247.149 232.057 247.546 231.806 247.877C231.555 248.207 231.213 248.458 230.822 248.596C230.43 248.735 230.007 248.757 229.604 248.658C229.201 248.56 228.835 248.345 228.552 248.041C228.269 247.738 228.081 247.358 228.011 246.949C227.941 246.539 227.992 246.119 228.158 245.738C228.324 245.358 228.598 245.034 228.946 244.807C229.293 244.58 229.7 244.46 230.115 244.461C230.697 244.482 231.247 244.734 231.644 245.16C232.041 245.586 232.253 246.153 232.234 246.735Z" fill="white"/>
<path d="M238.817 246.766C238.838 247.057 238.798 247.349 238.7 247.625C238.603 247.9 238.45 248.152 238.251 248.366C238.051 248.58 237.81 248.75 237.542 248.866C237.275 248.983 236.986 249.043 236.694 249.043C236.401 249.043 236.112 248.983 235.845 248.866C235.577 248.75 235.336 248.58 235.137 248.366C234.937 248.152 234.784 247.9 234.687 247.625C234.589 247.349 234.549 247.057 234.57 246.766C234.549 246.474 234.589 246.182 234.687 245.906C234.784 245.631 234.937 245.379 235.137 245.165C235.336 244.952 235.577 244.781 235.845 244.665C236.112 244.548 236.401 244.488 236.694 244.488C236.986 244.488 237.275 244.548 237.542 244.665C237.81 244.781 238.051 244.952 238.251 245.165C238.45 245.379 238.603 245.631 238.7 245.906C238.798 246.182 238.838 246.474 238.817 246.766Z" fill="white"/>
<path d="M245.401 246.796C245.372 247.21 245.224 247.607 244.973 247.938C244.722 248.269 244.38 248.519 243.989 248.658C243.597 248.797 243.174 248.818 242.771 248.72C242.368 248.621 242.002 248.407 241.719 248.103C241.436 247.799 241.248 247.419 241.178 247.01C241.108 246.601 241.159 246.18 241.325 245.8C241.491 245.419 241.765 245.096 242.113 244.869C242.46 244.642 242.867 244.521 243.282 244.522C243.864 244.544 244.414 244.795 244.811 245.222C245.208 245.648 245.42 246.214 245.401 246.796Z" fill="white"/>
<path d="M251.985 246.827C251.956 247.244 251.806 247.642 251.553 247.974C251.299 248.306 250.954 248.556 250.56 248.693C250.166 248.83 249.74 248.848 249.336 248.745C248.931 248.642 248.566 248.423 248.285 248.114C248.004 247.805 247.821 247.421 247.757 247.008C247.693 246.596 247.751 246.174 247.925 245.794C248.099 245.415 248.381 245.095 248.735 244.875C249.089 244.654 249.5 244.542 249.918 244.553C250.491 244.588 251.027 244.845 251.413 245.27C251.8 245.695 252.005 246.254 251.985 246.827Z" fill="white"/>
</g>
<path d="M242.631 97.6265C243.349 97.3104 243.958 96.7901 244.382 96.1303C244.807 95.4706 245.028 94.7006 245.018 93.9162C245.045 93.4062 244.968 92.8962 244.791 92.4171C244.614 91.938 244.342 91.4999 243.99 91.1295C243.639 90.7591 243.216 90.4641 242.746 90.2626C242.277 90.061 241.772 89.957 241.261 89.957C240.751 89.957 240.245 90.061 239.776 90.2626C239.307 90.4641 238.884 90.7591 238.532 91.1295C238.181 91.4999 237.908 91.938 237.732 92.4171C237.555 92.8962 237.478 93.4062 237.504 93.9162C237.489 94.7085 237.708 95.4877 238.135 96.1554C238.562 96.8231 239.177 97.3494 239.902 97.6679C234.114 98.536 234.373 104.82 234.373 104.82L248.057 104.882C248.057 104.882 248.377 98.4844 242.631 97.6265Z" fill="#0000BF"/>
<path opacity="0.1" d="M242.631 97.6265C243.349 97.3104 243.958 96.7901 244.382 96.1303C244.807 95.4706 245.028 94.7006 245.018 93.9162C245.045 93.4062 244.968 92.8962 244.791 92.4171C244.614 91.938 244.342 91.4999 243.99 91.1295C243.639 90.7591 243.216 90.4641 242.746 90.2626C242.277 90.061 241.772 89.957 241.261 89.957C240.751 89.957 240.245 90.061 239.776 90.2626C239.307 90.4641 238.884 90.7591 238.532 91.1295C238.181 91.4999 237.908 91.938 237.732 92.4171C237.555 92.8962 237.478 93.4062 237.504 93.9162C237.489 94.7085 237.708 95.4877 238.135 96.1554C238.562 96.8231 239.177 97.3494 239.902 97.6679C234.114 98.536 234.373 104.82 234.373 104.82L248.057 104.882C248.057 104.882 248.377 98.4844 242.631 97.6265Z" fill="black"/>
<path d="M264.866 108.935L216.095 108.714L216.068 114.543L264.84 114.764L264.866 108.935Z" fill="#0000BF"/>
<path opacity="0.2" d="M264.866 108.935L216.095 108.714L216.068 114.543L264.84 114.764L264.866 108.935Z" fill="white"/>
<path d="M85.5661 139.144H85.0803L83.6747 139.247C82.9141 139.293 82.1577 139.393 81.4113 139.547C80.9279 139.615 80.4484 139.708 79.9747 139.826L78.3728 140.27C75.6461 141.107 73.0736 142.381 70.7557 144.043C67.6932 146.265 65.136 149.111 63.2523 152.393C62.1451 154.285 61.264 156.301 60.6271 158.398C59.9579 160.678 59.5726 163.031 59.4799 165.406C59.4183 166.653 59.439 167.903 59.5419 169.147C59.5419 169.777 59.7176 170.408 59.8003 171.049C59.8698 171.695 59.9908 172.334 60.162 172.961C61.0914 177.108 62.9771 180.981 65.6688 184.27C68.3604 187.559 71.7835 190.174 75.6649 191.905C78.4741 193.117 81.4852 193.794 84.5429 193.9C87.7011 194.074 90.8624 193.62 93.8446 192.567L94.7542 192.226H94.8782L94.9815 192.288L108.014 198.902L107.632 199.233C106.237 194.913 104.893 190.727 103.591 186.707V186.551L103.704 186.438C106.866 183.253 109.213 179.354 110.546 175.069C111.754 171.152 112.107 167.021 111.58 162.956C111.112 159.343 109.95 155.855 108.159 152.683C106.615 149.958 104.624 147.512 102.268 145.448C100.324 143.815 98.1731 142.445 95.8704 141.376C94.128 140.625 92.3133 140.053 90.4547 139.671L88.3876 139.33L86.889 139.216L85.9795 139.154H85.6695C85.7725 139.143 85.8765 139.143 85.9795 139.154H86.8993L88.398 139.216L90.465 139.516C92.3468 139.87 94.1862 140.421 95.953 141.159C98.2954 142.216 100.485 143.582 102.464 145.221C104.863 147.275 106.897 149.722 108.479 152.455C110.321 155.662 111.518 159.197 112.004 162.863C112.574 166.991 112.246 171.193 111.043 175.183C109.7 179.556 107.317 183.539 104.097 186.789L104.159 186.52C105.461 190.541 106.815 194.727 108.221 199.037L108.417 199.667L107.828 199.367L94.7955 192.763H95.0229L94.0927 193.104C91.053 194.174 87.8332 194.637 84.6153 194.468C81.4916 194.349 78.4176 193.648 75.5512 192.401C70.0836 190.06 65.5345 185.99 62.6011 180.815C61.2513 178.426 60.2655 175.848 59.6763 173.167C59.5149 172.524 59.3941 171.872 59.3145 171.214C59.2318 170.563 59.0975 169.922 59.0665 169.281C58.7868 165.604 59.1754 161.906 60.2137 158.367C60.8664 156.241 61.7721 154.201 62.9112 152.29C64.8399 148.978 67.4503 146.114 70.5696 143.888C72.9257 142.221 75.5415 140.957 78.3107 140.146L79.9334 139.733C80.411 139.622 80.8939 139.536 81.3803 139.474C82.1344 139.335 82.8979 139.252 83.6644 139.226L85.0803 139.175C85.2413 139.153 85.4037 139.143 85.5661 139.144Z" fill="#0000BF"/>
<path d="M91.4569 163.245H89.5449L85.4108 157.437V153.623C85.4108 153.623 82.4549 153.437 82.8063 158.429C83.1577 163.421 82.8063 162.15 82.8063 162.15C82.8063 162.15 76.5328 162.15 76.016 162.718C75.4993 163.286 75.4683 169.343 75.3959 172.723C75.3563 173.537 75.5901 174.342 76.0601 175.008C76.5301 175.675 77.2094 176.166 77.9901 176.402C78.2089 176.463 78.4348 176.494 78.6619 176.495C80.2328 176.495 88.222 175.224 88.222 175.224H91.5189L91.4569 163.245Z" fill="#0000BF"/>
<path d="M96.9246 162.223L95.7464 175.286H92.4805V162.491L96.9246 162.223Z" fill="#0000BF"/>
<path d="M135.878 428.18V419.343L120.034 419.229L119.899 432.593L120.881 432.665C125.253 432.944 143.123 433.358 146.058 432.448C149.324 431.435 135.878 428.18 135.878 428.18Z" fill="#0000BF"/>
<path d="M146.43 431.621C146.43 431.766 140.498 431.89 133.191 431.89C125.884 431.89 119.951 431.766 119.951 431.621C119.951 431.477 125.884 431.353 133.191 431.353C140.498 431.353 146.43 431.477 146.43 431.621Z" fill="#263238"/>
<path d="M136.157 429.989C136.023 429.917 136.157 429.452 136.478 428.955C136.798 428.459 137.232 428.253 137.335 428.356C137.439 428.459 137.222 428.852 136.912 429.276C136.602 429.7 136.292 430.061 136.157 429.989Z" fill="#263238"/>
<path d="M137.17 430.568C137.026 430.568 137.098 429.989 137.408 429.441C137.718 428.893 138.131 428.563 138.245 428.645C138.359 428.728 138.173 429.193 137.883 429.679C137.594 430.165 137.305 430.619 137.17 430.568Z" fill="#263238"/>
<path d="M124.727 431.581C124.665 431.581 124.427 431.395 124.086 431.002C123.669 430.497 123.206 430.033 122.701 429.617C122.204 429.22 121.613 428.96 120.985 428.863C120.5 428.801 120.189 428.863 120.158 428.801C120.127 428.739 120.427 428.522 120.996 428.48C121.746 428.464 122.478 428.713 123.063 429.183C123.611 429.63 124.073 430.173 124.427 430.785C124.665 431.24 124.789 431.539 124.727 431.581Z" fill="#263238"/>
<path d="M136.209 428.325C136.282 428.449 136.013 428.759 135.558 428.924C135.103 429.089 134.7 429.027 134.68 428.924C134.659 428.821 134.979 428.604 135.372 428.459C135.765 428.314 136.127 428.2 136.209 428.325Z" fill="#263238"/>
<path d="M135.96 427.467C135.96 427.622 135.547 427.746 135.01 427.756C134.472 427.767 134.048 427.643 134.059 427.498C134.069 427.353 134.493 427.219 135.01 427.209C135.526 427.198 135.94 427.322 135.96 427.467Z" fill="#263238"/>
<path d="M174.893 428.18V419.343L159.049 419.229L158.915 432.459L159.897 432.531C164.269 432.81 182.149 433.358 185.074 432.448C188.34 431.435 174.893 428.18 174.893 428.18Z" fill="#0000BF"/>
<path d="M185.446 431.643C185.446 431.787 179.524 431.911 172.207 431.911C164.889 431.911 158.978 431.787 158.978 431.643C158.978 431.498 164.9 431.374 172.207 431.374C179.514 431.374 185.446 431.498 185.446 431.643Z" fill="#263238"/>
<path d="M175.172 429.989C175.048 429.917 175.172 429.452 175.493 428.955C175.813 428.459 176.247 428.253 176.351 428.356C176.454 428.459 176.237 428.852 175.927 429.276C175.617 429.7 175.307 430.061 175.172 429.989Z" fill="#263238"/>
<path d="M176.186 430.568C176.051 430.568 176.113 429.989 176.434 429.441C176.754 428.893 177.157 428.563 177.271 428.645C177.385 428.728 177.188 429.193 176.899 429.679C176.61 430.165 176.33 430.619 176.186 430.568Z" fill="#263238"/>
<path d="M163.742 431.581C163.68 431.581 163.453 431.395 163.101 431.002C162.685 430.497 162.221 430.033 161.717 429.617C161.22 429.22 160.629 428.96 160.001 428.863C159.525 428.801 159.205 428.863 159.174 428.801C159.143 428.739 159.443 428.522 160.011 428.48C160.761 428.464 161.493 428.713 162.078 429.183C162.629 429.627 163.092 430.17 163.443 430.785C163.68 431.24 163.804 431.539 163.742 431.581Z" fill="#263238"/>
<path d="M175.225 428.325C175.297 428.449 175.029 428.759 174.574 428.924C174.119 429.089 173.716 429.027 173.695 428.924C173.675 428.821 173.995 428.604 174.388 428.459C174.78 428.314 175.142 428.2 175.225 428.325Z" fill="#263238"/>
<path d="M174.997 427.467C174.997 427.622 174.584 427.746 174.046 427.756C173.509 427.767 173.095 427.643 173.106 427.498C173.116 427.353 173.529 427.219 174.046 427.209C174.563 427.198 174.997 427.322 174.997 427.467Z" fill="#263238"/>
<path d="M233.267 165.768C232.854 165.344 231.831 165.551 231.831 165.551C231.933 164.956 231.933 164.348 231.831 163.752C231.645 163.174 230.342 163.287 230.342 163.287C230.282 162.8 230.282 162.307 230.342 161.82C230.353 161.712 230.33 161.603 230.276 161.509C230.222 161.414 230.141 161.339 230.043 161.293C229.427 161.041 228.765 160.922 228.1 160.941C227.304 160.373 230.528 155.856 231.727 154.409C232.926 152.962 232.709 151.836 231.645 151.836C230.911 151.836 227.149 156.177 225.991 157.634C224.834 159.091 221.764 163.143 221.661 159.908C221.557 156.673 220.255 154.234 219.439 153.82C218.622 153.407 217.754 154.378 218.198 155.278C218.589 156.299 218.832 157.371 218.922 158.461C219.034 159.329 218.996 160.21 218.808 161.065C218.466 162.656 217.999 164.218 217.413 165.737H217.33C217.33 165.737 194.779 187.369 193.146 188.909C191.688 190.293 162.378 187.265 156.497 186.645C154.499 186.353 152.481 186.214 150.461 186.232C147.908 186.345 147.454 186.707 144.911 186.738C138.49 186.809 132.084 187.373 125.75 188.423C122.881 188.91 120.202 190.177 118.004 192.083C115.806 193.989 114.173 196.463 113.285 199.233C107.363 217.734 93.9479 261.524 91.5811 286.122C89.7926 289.365 88.1781 292.701 86.7442 296.116C85.0802 300.643 85.4833 300.798 86.0414 300.901C87.5504 301.18 89.266 293.057 89.9068 295.021C90.5476 296.984 86.6512 304.705 88.2325 304.932C90.2995 305.222 91.9428 296.664 92.1392 295.982C92.3356 295.3 93.3588 295.517 93.1727 296.158C92.873 297.067 89.9688 306.71 91.9945 307.02C93.1107 307.185 93.2348 305.149 93.2348 305.149C93.2348 305.149 95.3018 295.92 96.2423 296.106C97.1828 296.292 96.1803 301.739 95.7049 303.558C95.2295 305.377 95.8909 306.296 96.8624 305.852C97.5239 305.542 99.1052 300.013 99.5393 298.214C99.9734 296.416 101.059 291.434 102.516 294.318C103.973 297.201 106.185 298.876 107.094 298.917C107.299 298.893 107.492 298.809 107.649 298.675C107.806 298.54 107.918 298.362 107.973 298.163C108.027 297.964 108.021 297.754 107.955 297.558C107.888 297.363 107.765 297.192 107.601 297.067C106.818 296.303 106.147 295.433 105.606 294.483C105.124 293.743 104.774 292.925 104.573 292.065C104.156 290.35 103.914 288.598 103.849 286.835L103.684 285.802C105.999 274.34 112.665 240.699 122.287 219.212L126.235 227.335L127.951 233.35L117.43 259.323L162.305 258.734L155.608 232.957L163.742 206.086C172.537 206.282 195.12 206.613 198.882 204.908C203.615 202.84 228.1 171.917 228.1 171.917C229.696 170.677 231.224 169.352 232.678 167.949C232.678 167.949 234.166 166.698 233.267 165.768Z" fill="#FFBE9D"/>
<path d="M115.456 240.13C116.758 235.686 123.445 213.713 123.445 213.713C123.445 213.713 126.731 231.624 125.863 233.784C125.065 235.633 124.121 237.417 123.042 239.117C115.456 250.662 116.448 256.439 116.448 256.439L162.285 255.044C162.388 248.636 158.595 233.732 157.81 231.355C157.024 228.978 159.639 221.196 159.639 221.196C159.639 221.196 164.807 215.935 164.621 213.227C164.522 210.795 164.222 208.375 163.721 205.993L191.627 207.026L190.748 188.113L150.668 184.103C149.273 188.04 136.653 186.108 136.653 186.108C123.031 186.562 122.184 189.063 116.52 193.466C110.857 197.869 101.482 235.655 101.482 235.655L115.456 240.13Z" fill="#0000BF"/>
<path d="M142.555 235.655C141.761 235.797 140.952 235.839 140.147 235.779C138.648 235.779 136.591 235.676 134.328 235.448C132.065 235.221 130.018 234.901 128.561 234.611C127.757 234.508 126.97 234.306 126.215 234.012C127.023 234.012 127.829 234.088 128.623 234.239C130.091 234.425 132.127 234.684 134.38 234.911C136.633 235.138 138.679 235.293 140.157 235.397C140.963 235.407 141.766 235.493 142.555 235.655Z" fill="#263238"/>
<path d="M145.697 231.759C144.902 232.148 144.062 232.436 143.196 232.617C139.072 233.7 134.818 234.204 130.556 234.115C129.674 234.144 128.792 234.061 127.931 233.867C128.801 233.757 129.679 233.712 130.556 233.733C132.178 233.681 134.411 233.567 136.871 233.278C139.33 232.989 141.522 232.575 143.072 232.245C143.933 232.015 144.811 231.852 145.697 231.759Z" fill="#263238"/>
<path d="M161.117 214.374C161.096 215.162 160.989 215.945 160.797 216.71C160.528 218.146 160.114 220.11 159.587 222.26C159.06 224.41 158.554 226.394 158.099 227.738C157.916 228.507 157.646 229.252 157.293 229.96C157.351 229.174 157.496 228.398 157.727 227.645C158.12 226.032 158.564 224.172 159.06 222.136C159.556 220.1 160.032 218.239 160.425 216.627C160.564 215.851 160.797 215.095 161.117 214.374Z" fill="#263238"/>
<path d="M115.942 237.494C113.551 237.125 111.191 236.576 108.883 235.851C106.524 235.3 104.209 234.574 101.958 233.681C104.348 234.056 106.707 234.605 109.017 235.324C111.376 235.874 113.691 236.599 115.942 237.494Z" fill="#263238"/>
<path d="M164.217 205.765C163.827 205.832 163.429 205.832 163.039 205.765C161.959 205.655 160.899 205.401 159.886 205.011C158.196 204.375 156.657 203.393 155.368 202.128C154.079 200.862 153.07 199.341 152.404 197.662C151.668 195.815 151.353 193.828 151.484 191.844C151.53 190.207 152.019 188.614 152.9 187.234C153.519 186.304 154.444 185.621 155.515 185.301C155.801 185.222 156.096 185.184 156.393 185.188C156.6 185.188 156.703 185.188 156.703 185.188C156.703 185.188 156.269 185.188 155.577 185.467C154.595 185.83 153.762 186.51 153.21 187.399C151.804 189.611 151.411 193.652 152.91 197.425C153.608 199.203 154.7 200.801 156.104 202.096C157.254 203.156 158.579 204.01 160.021 204.618C161.373 205.153 162.78 205.537 164.217 205.765Z" fill="#263238"/>
<path d="M188.309 206.654C188.05 203.485 187.967 200.304 188.061 197.125C187.98 193.949 188.076 190.772 188.35 187.606C188.609 190.772 188.691 193.95 188.598 197.125C188.685 200.305 188.588 203.486 188.309 206.654Z" fill="#263238"/>
<path d="M150.399 185.26C150.513 182.955 150.751 180.351 150.751 180.351C150.751 180.351 156.456 179.72 156.797 173.829C157.138 167.938 156.797 154.347 156.797 154.347L146.461 149.056L134.989 158.078L136.757 187.534L147.278 188.206C148.082 188.228 148.862 187.93 149.447 187.378C150.033 186.826 150.375 186.064 150.399 185.26Z" fill="#FFBE9D"/>
<path d="M151.422 169.168C151.422 169.168 151.422 169.282 151.329 169.416C151.252 169.514 151.153 169.591 151.039 169.641C150.926 169.692 150.802 169.714 150.678 169.706C150.017 169.706 149.376 168.941 149.148 168.052C149.04 167.621 149.04 167.17 149.148 166.74C149.17 166.551 149.237 166.372 149.346 166.216C149.454 166.061 149.599 165.936 149.769 165.851C149.908 165.793 150.064 165.793 150.203 165.851C150.306 165.902 150.389 165.985 150.44 166.088C150.513 166.264 150.44 166.378 150.44 166.367C150.44 166.357 150.44 166.264 150.337 166.161C150.283 166.087 150.204 166.035 150.114 166.016C150.024 165.997 149.931 166.012 149.851 166.057C149.724 166.134 149.619 166.242 149.545 166.37C149.471 166.498 149.431 166.643 149.427 166.791C149.34 167.176 149.34 167.575 149.427 167.959C149.634 168.765 150.192 169.416 150.688 169.478C150.785 169.492 150.884 169.485 150.978 169.458C151.073 169.431 151.16 169.385 151.236 169.323C151.36 169.241 151.402 169.158 151.422 169.168Z" fill="#EB996E"/>
<path d="M160.342 151.164C159.546 148.456 156.663 147.113 154.037 146.368C150.038 145.232 145.718 144.735 141.811 146.172C137.904 147.609 133.212 150.13 133.212 154.44C130.907 154.254 129.584 156.27 128.675 158.771C128.093 160.295 127.745 161.897 127.641 163.525C127.352 169.168 125.77 176.961 122.112 181.095C120.045 183.4 117.182 184.991 116.004 187.865C114.97 190.355 115.508 193.311 114.546 195.833C113.689 198.055 111.797 199.636 110.412 201.569C109.001 203.762 108.171 206.277 107.999 208.878C107.827 211.48 108.32 214.083 109.43 216.442C110.549 218.74 112.124 220.787 114.059 222.457C115.994 224.127 118.248 225.386 120.686 226.157C125.513 227.625 130.661 227.676 135.517 226.301C139.161 225.43 142.56 223.745 145.459 221.371C148.426 218.949 150.463 215.575 151.226 211.822C151.96 207.605 150.782 203.316 149.903 199.12C147.154 185.859 147.94 185.167 151.412 172.858C151.495 172.641 151.536 172.413 151.598 172.196C151.66 171.979 151.691 171.876 151.733 171.71C151.831 171.224 151.883 170.729 151.888 170.233C151.38 170.421 150.83 170.461 150.301 170.348C149.772 170.234 149.286 169.972 148.901 169.592C148.515 169.187 148.246 168.684 148.122 168.138C147.998 167.593 148.024 167.023 148.198 166.491C148.442 165.909 148.805 165.385 149.265 164.952C149.724 164.52 150.269 164.188 150.865 163.98C152.012 163.504 153.242 163.256 154.368 162.729C156.756 161.592 158.409 159.236 159.536 156.766C160.462 155.054 160.748 153.068 160.342 151.164Z" fill="#263238"/>
<path d="M151.836 169.447C152.054 169.77 152.234 170.117 152.373 170.481C152.683 171.132 153.096 172.052 153.551 173.116L153.634 173.313H153.417L152.383 173.406C151.67 173.406 151.071 173.54 150.368 173.53C150.307 173.516 150.25 173.487 150.203 173.445C150.156 173.404 150.12 173.351 150.099 173.292C150.068 173.198 150.068 173.097 150.099 173.003C150.123 172.863 150.154 172.725 150.192 172.589L150.378 171.855C150.472 171.366 150.617 170.888 150.812 170.429C150.793 170.928 150.72 171.424 150.595 171.907L150.451 172.641C150.399 172.889 150.306 173.271 150.451 173.24C150.967 173.24 151.701 173.127 152.383 173.085L153.417 172.992L153.283 173.22C152.838 172.186 152.466 171.215 152.249 170.543C152.059 170.2 151.919 169.831 151.836 169.447Z" fill="#0000BF"/>
<path d="M116.448 256.439L162.285 255.044L182.232 332.91L178.563 422.227H154.326L157.293 334.812L139.568 280.603L142.296 425.689L117.802 426.051L115.228 289.677C115.114 285.884 113.874 277.337 114.339 273.575L116.448 256.439Z" fill="#263238"/>
<path d="M145.665 281.709C144.915 281.756 144.162 281.711 143.423 281.575C142.038 281.409 140.146 281.12 138.069 280.707C135.992 280.293 134.131 279.818 132.788 279.435C132.07 279.277 131.375 279.027 130.721 278.691C130.721 278.536 134.09 279.342 138.224 280.179C142.358 281.017 145.686 281.554 145.665 281.709Z" fill="#455A64"/>
<path d="M178.315 417.328C178.315 417.473 172.827 417.597 166.057 417.597C159.287 417.597 153.789 417.473 153.789 417.328C153.789 417.184 159.277 417.06 166.057 417.06C172.837 417.06 178.315 417.173 178.315 417.328Z" fill="#455A64"/>
<path d="M142.079 421.917C142.079 422.072 136.746 422.186 130.173 422.186C123.6 422.186 118.277 422.072 118.277 421.917C118.277 421.762 123.61 421.648 130.173 421.648C136.736 421.648 142.079 421.772 142.079 421.917Z" fill="#455A64"/>
<path d="M138.916 421.544C138.772 421.544 138.131 389.846 137.48 350.748C136.829 311.65 136.446 279.931 136.58 279.931C136.715 279.931 137.376 311.619 138.017 350.738C138.658 389.857 139.071 421.544 138.916 421.544Z" fill="#455A64"/>
<path d="M175.059 417.329C175.048 417.187 175.048 417.046 175.059 416.905V415.665C175.059 414.548 175.142 412.946 175.204 410.91C175.349 406.776 175.555 400.771 175.814 393.413C176.372 378.613 177.157 358.211 178.015 335.69C178.015 335.473 178.015 335.267 178.015 335.08V335.153C172.589 313.449 167.68 293.75 164.114 279.497L159.98 262.641C159.505 260.667 159.143 259.127 158.885 258.052C158.761 257.545 158.678 257.153 158.606 256.853C158.565 256.718 158.541 256.58 158.533 256.439C158.587 256.57 158.628 256.705 158.657 256.843C158.74 257.132 158.843 257.525 158.988 258.021C159.267 259.054 159.67 260.625 160.187 262.589C161.22 266.578 162.678 272.325 164.497 279.404C168.093 293.646 173.054 313.294 178.553 335.029V335.101C178.553 335.287 178.553 335.504 178.553 335.711C177.633 358.231 176.796 378.623 176.186 393.423C175.865 400.792 175.597 406.756 175.411 410.91C175.307 412.977 175.225 414.548 175.173 415.665C175.173 416.192 175.111 416.605 175.101 416.905C175.102 417.047 175.088 417.189 175.059 417.329Z" fill="#455A64"/>
<path d="M167.153 333.261C165.412 333.833 163.618 334.231 161.799 334.449C159.566 334.832 157.665 335.1 156.807 335.142V334.935C157.086 335.018 157.231 335.069 157.231 335.111C157.231 335.152 157.055 335.111 156.766 335.111H156.146L156.766 334.925C157.572 334.687 159.473 334.294 161.706 333.891C163.496 333.503 165.321 333.292 167.153 333.261Z" fill="#455A64"/>
<path d="M166.729 336.227C165.117 336.301 163.502 336.229 161.903 336.01C160.288 335.977 158.68 335.801 157.097 335.483C160.327 335.22 163.578 335.471 166.729 336.227Z" fill="#455A64"/>
<path opacity="0.2" d="M116.251 258.083C116.794 258.78 117.478 259.354 118.258 259.769C119.038 260.184 119.896 260.43 120.778 260.491C122.624 260.709 124.491 260.675 126.328 260.387C138.162 259.075 150.698 257.865 162.284 255.044C147.288 255.881 131.444 255.602 116.447 256.439L116.292 257.721" fill="black"/>
<g opacity="0.2">
<path d="M131.702 279.218L140.156 312.022L139.567 280.603L131.702 279.218Z" fill="black"/>
</g>
</svg>
